<?xml version="1.0" encoding="UTF-8" standalone="no"?>
<svg
   xmlns:dc="http://purl.org/dc/elements/1.1/"
   xmlns:cc="http://creativecommons.org/ns#"
   xmlns:rdf="http://www.w3.org/1999/02/22-rdf-syntax-ns#"
   xmlns:svg="http://www.w3.org/2000/svg"
   xmlns="http://www.w3.org/2000/svg"
   xmlns:sodipodi="http://sodipodi.sourceforge.net/DTD/sodipodi-0.dtd"
   xmlns:inkscape="http://www.inkscape.org/namespaces/inkscape"
   inkscape:export-ydpi="96"
   inkscape:export-xdpi="96"
   inkscape:export-filename="/Users/michelle/Downloads/checkpoint.png"
   inkscape:version="1.0beta2 (2b71d25, 2019-12-03)"
   height="10.734239mm"
   width="16.725916mm"
   sodipodi:docname="checkpoint.svg"
   id="svg66"
   xml:space="preserve"
   enable-background="new 0 0 95 95"
   viewBox="0 0 85.893227 55.688461"
   y="0px"
   x="0px"
   version="1.1"
   shape-rendering="crispEdges"><metadata
     id="metadata72"><rdf:RDF><cc:Work
         rdf:about=""><dc:format>image/svg+xml</dc:format><dc:type
           rdf:resource="http://purl.org/dc/dcmitype/StillImage" /><dc:title></dc:title></cc:Work></rdf:RDF></metadata><defs
     id="defs70" /><sodipodi:namedview
     inkscape:current-layer="svg66"
     inkscape:window-maximized="0"
     inkscape:window-y="23"
     inkscape:window-x="0"
     inkscape:cy="9.7571941"
     inkscape:cx="38.268378"
     inkscape:zoom="5.6568543"
     fit-margin-bottom="0"
     fit-margin-right="0"
     fit-margin-left="0.2"
     fit-margin-top="0.2"
     units="mm"
     showgrid="false"
     id="namedview68"
     inkscape:window-height="805"
     inkscape:window-width="1360"
     inkscape:pageshadow="2"
     inkscape:pageopacity="0"
     guidetolerance="10"
     gridtolerance="10"
     objecttolerance="10"
     borderopacity="1"
     inkscape:document-rotation="0"
     bordercolor="#666666"
     pagecolor="#ffffff"
     scale-x="1" /><g
     style="fill:#008000"
     transform="translate(-62.964797,-12.489273)"
     id="g434"><path
       style="fill:#008000"
       d="m 76.503019,68.177042 c 0.125,-2.77 1.336,-10.447 10.213,-18.732 0.013,-0.014 0.027,-0.026 0.041,-0.039 6.246,-5.817 16.272001,-11.933 32.356001,-16.859 1.174,-0.36 1.834,-1.604 1.475,-2.778 -0.36,-1.174 -1.602,-1.831 -2.777,-1.475 -14.191,4.349 -23.997001,9.643 -30.769001,14.977 -0.004,-4.59 1.021,-12.076 6.863,-17.7 8.688001,-8.362 25.598001,-10.067 49.000001,-4.965 -2.848,6.772 -12.181,26.304 -27.423,32.824 -7.222,3.09 -14.943,2.839 -22.948001,-0.737 -1.123,-0.504 -2.437,0.002 -2.938,1.122 -0.501,1.121 0.001,2.437 1.122,2.938 4.897,2.188 9.720001,3.285 14.430001,3.285 4.127,0 8.167,-0.842 12.095,-2.524 20.258,-8.674 30.362,-36.575 30.783,-37.758 l 0.832,-2.342 -2.421,-0.566 c -26.625,-6.231 -45.337,-4.373 -55.617001,5.521 -9.027,8.69 -8.49,20.681 -8.023,24.616 -9.346,9.115 -10.646,17.719 -10.748,21.192 z"
       id="path60"
       inkscape:connector-curvature="0" /><path
       style="fill:#008000"
       inkscape:connector-curvature="0"
       id="path60-2"
       d="m 66.523438,47.775391 c -0.548711,0.736321 -1.243901,1.623713 -1.777344,2.296875 -0.207072,0.261309 -0.419882,0.518845 -0.623047,0.783203 -0.103095,0.134146 -0.184234,0.285874 -0.296875,0.412109 -0.03312,0.03712 -0.0714,0.06927 -0.105469,0.105469 7.114478,7.523864 8.212922,14.251803 8.328125,16.804687 h 4.455078 c -0.09904,-3.372131 -1.353859,-11.58465 -9.980468,-20.402343 z" /></g><path
     inkscape:connector-curvature="0"
     id="path436"
     d="M 8.9727896,53.979525 C 8.3517018,49.647135 5.7779738,44.501675 2.1091006,40.257469 1.5286572,39.586003 1.053749,38.955112 1.053749,38.855489 c 0,-0.231866 2.3715459,-3.27579 2.5521931,-3.27579 0.1681219,0 1.8381779,1.891346 3.0792349,3.487249 1.4904767,1.916636 2.7516813,3.88822 3.712981,5.804337 l 0.896465,1.786883 0.773966,-1.53934 c 1.554538,-3.091822 3.82595,-6.315415 6.267214,-8.894443 l 1.461601,-1.54408 0.05328,-4.276443 c 0.04753,-3.815144 0.104495,-4.504123 0.528038,-6.387146 2.635037,-11.715052 10.462055,-19.0900795 23.25617,-21.913186 4.219843,-0.931136 6.231103,-1.10818903 12.66422,-1.11484173 6.018841,-0.00622 7.552819,0.091974 13.123068,0.84008103 4.526306,0.607901 15.8575,2.8364692 16.208931,3.1878995 0.266413,0.2664139 -2.214187,6.2635622 -4.366867,10.5574282 -2.143368,4.275285 -3.30206,6.276309 -5.792064,10.002704 -2.61486,3.913248 -4.662846,6.475821 -7.600743,9.510543 -9.353198,9.661456 -19.89496,13.767108 -30.660424,11.941179 -3.641595,-0.617651 -9.111262,-2.43974 -10.004175,-3.332654 -0.882058,-0.882057 -0.830847,-2.263265 0.11337,-3.057772 0.765945,-0.644499 1.524484,-0.604682 3.494295,0.183426 7.670446,3.068891 15.235908,3.077124 22.121824,0.02407 6.869197,-3.045639 13.214505,-8.954732 19.056638,-17.746577 2.317348,-3.487384 3.545961,-5.617016 5.506091,-9.544049 2.262483,-4.5327853 2.59077,-5.3222135 2.290449,-5.5078216 C 79.481341,7.8566912 74.481922,6.8937699 71.257575,6.4038415 62.686848,5.1015488 55.415974,4.8328915 48.997954,5.5813526 34.935393,7.2213101 26.608974,13.97482 24.461572,25.48267 c -0.336318,1.802314 -0.58765,5.325005 -0.379921,5.325005 0.07769,0 0.730338,-0.44048 1.450322,-0.978844 5.697361,-4.260164 13.906183,-8.505935 22.38858,-11.579834 4.323991,-1.566951 6.827048,-2.347353 7.612521,-2.373426 0.698173,-0.02318 0.869919,0.05642 1.422431,0.659219 0.493042,0.537917 0.628384,0.841249 0.628384,1.408348 0,1.224168 -0.605328,1.732803 -2.973205,2.498287 -11.650649,3.766404 -20.548558,8.151382 -27.677877,13.639932 -2.271689,1.748874 -6.859077,6.42593 -8.262184,8.423681 -2.977667,4.239619 -4.751419,8.373277 -5.071702,11.819398 l -0.117204,1.261059 H 11.342368 9.2030203 Z"
     style="fill:#002b11;stroke-width:0.183539" /><path
     inkscape:connector-curvature="0"
     id="path438"
     d="M 9.2342493,55.172532 C 9.1870783,54.945402 9.0565313,54.181419 8.9441454,53.474792 8.3302259,49.614777 5.9623505,44.861796 2.5550236,40.650058 1.8302692,39.754201 1.2375457,38.928273 1.2378602,38.814664 c 9.691e-4,-0.349798 2.2223716,-3.074968 2.4482479,-3.003457 0.3370993,0.106722 3.1041942,3.481798 4.3712624,5.331708 0.6353631,0.927624 1.6208808,2.582082 2.1900395,3.676571 l 1.034835,1.989981 1.026603,-1.939656 c 1.748563,-3.303722 3.681522,-5.987946 6.377404,-8.856052 l 1.230928,-1.309565 0.08923,-4.655466 c 0.08152,-4.25279 0.13093,-4.819231 0.571274,-6.548809 C 23.446169,12.233126 30.850966,5.2494515 42.992505,2.359867 47.702564,1.2389126 48.555912,1.1650802 56.666192,1.1768077 c 6.980402,0.010094 7.651429,0.040343 11.012364,0.4964229 4.03867,0.5480491 11.496089,1.8863063 15.279657,2.7419823 2.069083,0.4679354 2.523666,0.6288629 2.523666,0.8934078 0,1.318888 -4.554503,11.1680363 -7.29338,15.7719933 -8.845095,14.868295 -19.35449,23.678091 -30.791048,25.811464 -2.75665,0.514226 -8.29147,0.470563 -10.920595,-0.08615 -4.140801,-0.876805 -8.506705,-2.461881 -9.265811,-3.364028 -1.036023,-1.231245 -0.245776,-3.090226 1.313614,-3.090143 0.386314,2.2e-5 1.858689,0.404117 3.271942,0.897992 3.161173,1.104702 5.402275,1.601561 8.272243,1.833985 7.473238,0.605213 14.508812,-1.873116 21.185833,-7.462856 2.192867,-1.835781 4.938858,-4.682672 7.034023,-7.292482 1.880798,-2.342787 5.281606,-7.381004 6.919186,-10.250616 1.644804,-2.882263 4.594018,-8.9756832 4.638238,-9.5831324 0.03651,-0.5016048 -0.0091,-0.5304201 -1.338742,-0.8449059 C 76.513991,7.1782514 69.814606,6.0754968 67.036169,5.7615187 60.783392,5.0549223 53.73591,4.9438923 49.141076,5.4795891 43.16223,6.1766436 37.739477,7.9830528 33.817912,10.583991 c -1.578129,1.046677 -4.034165,3.374776 -5.257993,4.9841 -1.197276,1.574405 -2.960414,5.183285 -3.544776,7.255619 -0.905158,3.209985 -1.373726,8.159371 -0.749797,7.919948 0.148043,-0.05681 1.2011,-0.760659 2.340127,-1.564112 6.602409,-4.657235 14.972544,-8.736116 24.508391,-11.943273 4.136352,-1.391165 4.840542,-1.507638 5.490758,-0.908172 0.621367,0.572869 0.970086,1.41356 0.849027,2.046837 -0.136795,0.715593 -0.941454,1.320503 -2.387304,1.794678 -11.55307,3.788896 -20.252785,7.997218 -27.392248,13.250485 -0.989814,0.72831 -3.151019,2.694124 -4.972443,4.522885 -3.531643,3.545871 -5.175527,5.749251 -6.932119,9.291466 -1.361461,2.745423 -1.869652,4.422788 -2.349388,7.75454 l -0.08589,0.596503 h -2.007121 c -1.9336857,0 -2.0102577,-0.0151 -2.0928867,-0.412963 z"
     style="fill:#0b2817;stroke-width:0.183539" /><path
     inkscape:connector-curvature="0"
     id="path440"
     d="M 9.5487333,55.438084 C 9.4260073,55.360098 9.1653823,54.473492 8.9695669,53.467845 8.1560266,49.289769 6.4630618,45.81108 2.9822376,41.165136 1.5419643,39.242766 1.2759698,38.786999 1.4282492,38.502464 c 0.326973,-0.610955 2.0188974,-2.555686 2.2234577,-2.555686 0.2517365,0 0.9412883,0.761566 2.5758483,2.844861 1.7912491,2.282999 2.5233564,3.38983 3.8829478,5.8704 l 1.173789,2.141573 1.154681,-2.078823 c 1.908573,-3.436087 3.720026,-5.9445 6.273397,-8.687096 l 1.196929,-1.285632 0.130685,-4.49586 c 0.143119,-4.923615 0.323547,-6.183448 1.311589,-9.158099 1.456476,-4.384936 3.440368,-7.634947 6.575287,-10.771629 3.892414,-3.8946021 8.272048,-6.1930722 15.057243,-7.902171 4.37401,-1.1017545 5.755603,-1.2062109 14.778245,-1.117321 7.488344,0.073774 8.182473,0.108814 11.075339,0.5590849 5.951056,0.9262747 13.647539,2.3884659 15.697955,2.982325 0.929047,0.2690783 0.974561,0.3102616 0.860563,0.7786683 C 84.879738,7.7491887 80.104421,17.855354 77.920966,21.447165 70.326017,33.940948 61.900178,41.899308 52.583728,45.37865 c -3.55398,1.32728 -5.123429,1.614787 -9.363696,1.715345 -4.231173,0.100341 -5.681437,-0.0412 -8.877266,-0.866405 -2.419528,-0.624756 -5.773303,-1.858871 -6.610485,-2.432518 -1.340692,-0.918657 -1.294915,-2.528707 0.09059,-3.186172 0.641368,-0.304349 0.697843,-0.298285 2.590005,0.278104 6.093234,1.856117 7.434059,2.140326 10.744234,2.277401 5.879485,0.243472 11.520736,-1.465724 16.92352,-5.12752 C 65.102992,33.277403 71.872215,24.869956 77.201047,14.289127 79.524996,9.6747396 80.115172,8.2979965 79.872676,8.0568468 79.416131,7.6028377 69.838799,5.9691119 64.741926,5.4758046 61.443855,5.1565965 54.042953,5.0482058 51.160009,5.2768891 44.210497,5.8281444 38.393896,7.5774971 34.022931,10.430894 c -1.81714,1.18624 -4.597475,3.870811 -5.769171,5.570457 -2.515705,3.649251 -3.966255,7.9875 -4.198917,12.557966 -0.06295,1.236597 -0.04629,2.248358 0.03703,2.248358 0.08332,0 1.561889,-0.940803 3.285719,-2.090672 3.712646,-2.476501 5.787649,-3.684457 9.638838,-5.611215 4.734801,-2.368831 10.762999,-4.807022 15.611894,-6.314452 2.228544,-0.692813 2.957701,-0.813203 3.61579,-0.597001 0.525252,0.172562 1.157826,1.205785 1.150398,1.879014 -0.01134,1.027901 -0.621384,1.453635 -3.491349,2.43654 -10.154751,3.477801 -17.043457,6.713962 -23.666648,11.118073 -5.407251,3.595566 -10.819507,9.091828 -13.452063,13.660857 -1.813821,3.148042 -2.835161,5.915374 -3.26294,8.840974 l -0.212852,1.455702 -1.768395,-0.0028 c -0.972618,-0.0015 -1.8688067,-0.06662 -1.9915327,-0.144601 z"
     style="fill:#001806;fill-opacity:1;stroke-width:0.183539" /><path
     inkscape:connector-curvature="0"
     id="path1265"
     d="M 10.231662,55.421795 9.4984463,55.310186 8.834975,52.740634 C 8.4700656,51.327381 8.0364439,49.810854 7.8713713,49.370574 7.2061285,47.596245 5.4285957,44.512887 3.5245474,41.830453 2.417975,40.271508 1.5125975,38.866237 1.5125975,38.707628 c 0,-0.382755 1.7844355,-2.57731 2.0956603,-2.57731 0.7582058,0 4.5612439,5.098901 6.6032692,8.853295 0.479677,0.881918 0.937214,1.643705 1.016748,1.692859 0.07953,0.04916 0.75075,-0.977823 1.491591,-2.282171 1.730585,-3.046927 3.230911,-5.147295 5.504995,-7.706673 l 1.825218,-2.054201 0.0038,-2.1423 c 0.006,-3.423689 0.326237,-7.458625 0.725188,-9.138423 0.784805,-3.304449 2.513392,-7.138044 4.343383,-9.632592 4.153482,-5.661809 9.334029,-8.9707735 17.343667,-11.0778997 4.421624,-1.1632138 5.387764,-1.2465347 14.200094,-1.2246283 4.340707,0.01079 8.718122,0.1065775 9.727589,0.21286 3.505575,0.3690872 15.270449,2.4919945 17.953895,3.2396818 1.009846,0.2813732 1.061876,0.3237338 0.951393,0.7745745 -0.40694,1.6605721 -3.983446,9.4768427 -6.175182,13.4955407 -1.614389,2.960094 -4.246168,6.9988 -6.415339,9.844926 -6.574166,8.625827 -13.402452,13.991354 -21.27323,16.716065 -2.40202,0.831532 -3.862794,1.084308 -7.249806,1.254525 -5.856908,0.29434 -9.761197,-0.371036 -15.001418,-2.55657 -1.592548,-0.664202 -2.343057,-1.381788 -2.343057,-2.24027 0,-0.735545 0.878866,-1.623654 1.606756,-1.623654 0.293567,0 2.096311,0.455299 4.006101,1.011778 4.878241,1.42143 6.033504,1.616439 9.620914,1.624019 4.568339,0.0097 7.66806,-0.701269 11.888779,-2.726691 C 61.498946,36.828331 68.764299,29.289488 74.836393,18.785843 76.540968,15.83723 79.737933,9.3140661 79.835704,8.5851261 79.939408,7.8119535 80.178457,7.9181474 76.774906,7.2254089 74.251565,6.7118234 69.524528,5.9687468 66.210241,5.5646743 62.401143,5.1002754 52.909746,4.9927631 49.599924,5.3765237 44.405865,5.9787543 40.234853,7.1229296 36.546043,8.9574119 30.077149,12.17446 25.625896,18.182176 24.3684,25.393194 c -0.388386,2.227168 -0.570883,5.414481 -0.310017,5.414481 0.114421,0 1.716496,-0.977234 3.560166,-2.171631 4.848254,-3.140881 7.523559,-4.635222 11.978477,-6.690799 4.9784,-2.297123 12.383728,-5.062786 15.137303,-5.653323 1.196732,-0.256653 1.885477,-0.0033 2.286064,0.840853 0.39954,0.841967 0.360264,1.431661 -0.124777,1.873448 -0.612506,0.557884 -0.993949,0.724881 -4.524623,1.980893 -8.644559,3.075239 -14.575863,5.823617 -20.265027,9.39017 -10.304248,6.459761 -17.10917,15.00545 -18.561815,23.310107 -0.156122,0.892536 -0.284122,1.684738 -0.284444,1.760448 -6.79e-4,0.15726 -1.933008,0.140641 -3.028045,-0.02605 z"
     style="fill:#002b00;fill-opacity:1;stroke-width:0.183539" /><path
     inkscape:connector-curvature="0"
     id="path21"
     d="m 30.547595,45.394214 c -0.917677,-0.335346 -1.743912,-0.668851 -2.664586,-1.075543 -0.230054,-0.101622 -0.310335,-0.143251 -0.441218,-0.228788 -0.344696,-0.225271 -0.620253,-0.544115 -0.793948,-0.918671 -0.114404,-0.246701 -0.180327,-0.49966 -0.202742,-0.777956 -0.0065,-0.08069 -0.0054,-0.261121 0.0022,-0.346761 0.01663,-0.188461 0.05116,-0.351759 0.112567,-0.532309 l 0.02103,-0.06185 h 0.07051 c 0.05812,0 0.07013,9.79e-4 0.06837,0.0056 -0.07586,0.197696 -0.11763,0.374125 -0.137418,0.580476 -0.0077,0.08024 -0.0064,0.281506 0.0023,0.365012 0.04676,0.4469 0.224408,0.850359 0.52411,1.190344 0.116293,0.131924 0.205098,0.20775 0.372694,0.318227 0.171218,0.112864 0.334416,0.204836 0.592188,0.333734 0.651528,0.325796 1.481925,0.659843 2.675681,1.076355 l 0.04765,0.01663 v 0.05831 0.05831 l -0.04157,-1.61e-4 -0.04157,-1.6e-4 z"
     style="fill:#001806;stroke-width:0.00405569" /><path
     inkscape:connector-curvature="0"
     id="path23"
     d="M 30.646959,45.282716 C 29.178897,44.768751 28.1155,44.31073 27.532605,43.941318 c -0.152142,-0.09642 -0.239953,-0.164693 -0.337143,-0.262124 -0.232042,-0.232619 -0.406234,-0.513705 -0.50913,-0.821561 -0.06794,-0.20326 -0.100057,-0.385524 -0.105781,-0.600242 -0.0068,-0.25409 0.03534,-0.507632 0.124199,-0.747666 l 0.02124,-0.05739 h 0.08053 0.08053 l -0.008,0.01861 c -0.02949,0.06879 -0.07016,0.20037 -0.09078,0.293675 -0.09539,0.431683 -0.04321,0.8664 0.151631,1.263346 0.08143,0.165905 0.194663,0.333457 0.308788,0.456937 0.114231,0.123593 0.338789,0.289872 0.601849,0.445649 0.612126,0.362486 1.562138,0.781679 2.733532,1.206172 0.100378,0.03638 0.18935,0.06832 0.197715,0.071 l 0.01521,0.0049 v 0.06052 c 0,0.03329 -0.0014,0.06041 -0.003,0.06027 -0.0017,-1.39e-4 -0.06783,-0.02294 -0.147019,-0.05066 z"
     style="fill:#001806;stroke-width:0.00405569" /><path
     inkscape:connector-curvature="0"
     id="path25"
     d=""
     style="fill:#001806;stroke-width:0.00405569" /><path
     inkscape:connector-curvature="0"
     id="path27"
     d="m 30.776741,45.326711 c -0.0033,-0.0012 -0.09825,-0.03468 -0.210895,-0.07436 -1.436833,-0.506085 -2.462151,-0.950409 -3.041314,-1.317962 -0.147187,-0.09341 -0.223399,-0.153415 -0.329268,-0.259251 -0.269785,-0.2697 -0.459041,-0.602414 -0.552683,-0.971621 -0.04313,-0.17005 -0.05959,-0.306707 -0.0596,-0.494793 -8e-6,-0.180794 0.01588,-0.315076 0.05735,-0.484655 0.01395,-0.05704 0.05457,-0.186034 0.07951,-0.252466 l 0.0072,-0.01926 h 0.0781 c 0.04296,0 0.0781,0.0016 0.0781,0.0036 0,0.002 -0.0043,0.01336 -0.0096,0.02535 -0.0099,0.02241 -0.04444,0.125486 -0.059,0.175913 -0.02749,0.09518 -0.05055,0.213703 -0.06392,0.328511 -0.0101,0.08676 -0.01013,0.311789 -3.7e-5,0.397457 0.0423,0.359192 0.17204,0.682509 0.390827,0.973971 0.0975,0.129885 0.180527,0.210252 0.343998,0.332971 0.501161,0.376227 1.476693,0.842118 2.804507,1.339367 0.118197,0.04426 0.416222,0.15303 0.479585,0.175029 l 0.02738,0.0095 -4.5e-5,0.0426 c -6.9e-5,0.06704 -0.0028,0.07652 -0.02023,0.07015 z"
     style="fill:#001806;stroke-width:0.00405569" /><path
     inkscape:connector-curvature="0"
     id="path29"
     d="m 30.774713,45.203411 c -0.01115,-0.0041 -0.09419,-0.03413 -0.184533,-0.06677 -0.462464,-0.167041 -0.942041,-0.354257 -1.324182,-0.51693 -0.05354,-0.02279 -0.109199,-0.04646 -0.123698,-0.0526 -0.319403,-0.135326 -0.777462,-0.354141 -1.04434,-0.498881 -0.328614,-0.178222 -0.573136,-0.338695 -0.753938,-0.494786 -0.129328,-0.111652 -0.265904,-0.289745 -0.368667,-0.480737 -0.129693,-0.241042 -0.204917,-0.497057 -0.226311,-0.770215 -0.006,-0.07711 -0.0024,-0.281105 0.0063,-0.351028 0.02115,-0.170554 0.06211,-0.336643 0.119777,-0.485668 0.01271,-0.03284 0.0132,-0.03346 0.02679,-0.03346 0.0076,0 0.01384,9.73e-4 0.01384,0.0022 0,0.0012 -0.0044,0.01077 -0.0097,0.02129 -0.03378,0.06666 -0.08407,0.205611 -0.105292,0.290861 -0.05478,0.220099 -0.06175,0.450755 -0.02041,0.675272 0.08118,0.440871 0.339291,0.858406 0.735753,1.190176 0.199069,0.166587 0.371631,0.27358 0.719767,0.446279 0.555992,0.275808 1.38994,0.618487 2.370548,0.974084 0.101494,0.03681 0.185968,0.06828 0.18772,0.06995 0.0018,0.0017 0.0027,0.02225 0.002,0.04573 l -0.0012,0.0427 z"
     style="fill:#001806;stroke-width:0.00405569" /><path
     inkscape:connector-curvature="0"
     id="path31"
     d="m 30.292087,45.298088 c -0.857141,-0.320175 -1.633615,-0.637254 -2.475997,-1.011094 -0.300716,-0.133454 -0.518695,-0.279285 -0.724021,-0.484379 -0.173209,-0.173013 -0.305652,-0.3578 -0.417194,-0.582076 -0.122695,-0.2467 -0.192549,-0.49014 -0.224004,-0.780642 -0.01186,-0.109542 -0.0091,-0.354791 0.0051,-0.459307 l 0.0023,-0.01724 h 0.065 0.065 l -0.0026,0.02332 c -0.01278,0.115751 -0.01307,0.324524 -5.93e-4,0.434972 0.04261,0.377326 0.182098,0.730378 0.407802,1.032172 0.0841,0.112448 0.210792,0.250003 0.292429,0.317494 0.191653,0.158445 0.524931,0.352845 0.962606,0.561487 0.524436,0.250001 1.105964,0.487573 1.90977,0.7802 0.100127,0.03645 0.182756,0.06698 0.183621,0.06785 8.65e-4,8.65e-4 0.0011,0.03169 4.58e-4,0.0685 l -0.0011,0.06692 z"
     style="fill:#001806;stroke-width:0.00405569" /><path
     inkscape:connector-curvature="0"
     id="path33"
     d=""
     style="fill:#001806;stroke-width:0.00390625" /><path
     inkscape:connector-curvature="0"
     id="path35"
     d=""
     style="fill:#001806;stroke-width:0.00390625" /><path
     inkscape:connector-curvature="0"
     id="path37"
     d="m 30.116904,45.092033 c -1.249069,-0.458337 -2.127663,-0.853027 -2.631085,-1.181961 -0.115865,-0.0757 -0.184577,-0.130506 -0.276566,-0.220573 -0.283707,-0.27778 -0.481667,-0.627841 -0.574445,-1.015814 -0.04044,-0.169105 -0.05586,-0.322147 -0.05196,-0.515625 0.0012,-0.05908 0.0034,-0.110498 0.0049,-0.114258 0.0024,-0.0062 0.01002,-0.0068 0.08034,-0.0068 h 0.07764 l -0.0024,0.09668 c -0.0014,0.05827 -5.73e-4,0.125225 0.0022,0.168533 0.0256,0.406132 0.179513,0.790553 0.449017,1.121506 0.325274,0.399439 1.347432,0.938594 2.91071,1.535305 l 0.130859,0.04995 0.0011,0.06284 c 5.91e-4,0.03456 -2.88e-4,0.06277 -0.002,0.06269 -0.0017,-8.4e-5 -0.05488,-0.01918 -0.118261,-0.04244 z"
     style="fill:#001806;stroke-width:0.00390625" /><path
     inkscape:connector-curvature="0"
     id="path39"
     d="m 30.163779,45.109502 c -1.109167,-0.401919 -2.028066,-0.804428 -2.536232,-1.110954 -0.207577,-0.12521 -0.299636,-0.193022 -0.414479,-0.305308 -0.176276,-0.17235 -0.311389,-0.358436 -0.418365,-0.576196 -0.124311,-0.253047 -0.191696,-0.502606 -0.209367,-0.77539 -0.0047,-0.07235 -0.0032,-0.291993 0.0021,-0.300486 0.0017,-0.0028 0.0289,-0.0042 0.07969,-0.0042 h 0.07709 l -1e-6,0.137695 c -2e-6,0.178901 0.01095,0.280767 0.04686,0.435996 0.01495,0.0646 0.04986,0.18488 0.05672,0.195435 0.0034,0.0052 0.0036,0.0049 0.0015,-0.0015 -0.07725,-0.237073 -0.106555,-0.43301 -0.100691,-0.673343 0.0021,-0.08513 0.0043,-0.104137 0.01022,-0.08935 0.0016,0.0039 0.002,0.0039 0.0023,0 2.46e-4,-0.0039 0.350733,-0.0049 1.73859,-0.0049 h 1.738281 v 1.4375 c 0,0.790625 -0.0014,1.4375 -0.0032,1.4375 -0.0063,0 -0.372001,-0.139801 -0.590558,-0.225787 -0.269646,-0.106087 -0.582643,-0.235063 -0.792595,-0.326602 -0.06552,-0.02857 -0.08456,-0.0358 -0.06189,-0.0235 0.01709,0.0093 0.297477,0.128673 0.444666,0.189359 0.25788,0.106324 0.707663,0.282875 0.936142,0.36746 l 0.06734,0.02493 4.6e-5,0.04385 4.6e-5,0.04385 -0.01074,-0.0041 c -0.08726,-0.03366 -0.143024,-0.05414 -0.144204,-0.05296 -8.06e-4,8.05e-4 0.03329,0.01467 0.07576,0.03082 l 0.07723,0.02935 0.0011,0.06301 c 5.9e-4,0.03466 -2.89e-4,0.06293 -0.002,0.06284 -0.0017,-9.6e-5 -0.03379,-0.01132 -0.07139,-0.02495 z m -0.09963,-0.1699 c -0.01815,-0.0081 -0.03602,-0.01394 -0.03317,-0.01086 0.0028,0.0031 0.04026,0.01796 0.04491,0.01789 0.0021,-3.5e-5 -0.0031,-0.0032 -0.01174,-0.007 z m -0.03752,-0.01374 c -0.0033,-0.0033 -0.113955,-0.04535 -0.115415,-0.04389 -8.01e-4,8.01e-4 0.02362,0.01128 0.05426,0.02329 0.05192,0.02034 0.06545,0.0249 0.06115,0.0206 z m -0.126526,-0.04935 c -0.02156,-0.01015 -0.312363,-0.124184 -0.313583,-0.122963 -0.0017,0.0017 0.311882,0.126882 0.31749,0.126741 0.0021,-5.5e-5 3.9e-4,-0.0018 -0.0039,-0.0038 z m -0.322265,-0.128604 c -0.0032,-0.0021 -0.0076,-0.0038 -0.0098,-0.0038 -0.0021,0 -0.0013,0.0017 0.002,0.0038 0.0032,0.0021 0.0076,0.0038 0.0098,0.0038 0.0021,0 0.0013,-0.0017 -0.002,-0.0038 z m -0.01615,-0.0057 c -0.0034,-0.0034 -0.125746,-0.05289 -0.127183,-0.05146 -0.0015,0.0015 0.119201,0.05248 0.125429,0.05299 0.002,1.61e-4 0.0028,-5.29e-4 0.0018,-0.0015 z m -0.132644,-0.05452 c -0.0033,-0.0033 -0.161166,-0.06859 -0.162534,-0.06722 -0.0015,0.0015 0.154619,0.06822 0.160612,0.06863 0.002,1.36e-4 0.0028,-4.99e-4 0.0019,-0.0014 z m -0.175425,-0.07451 c -0.0054,-0.0031 -0.01152,-0.0056 -0.01367,-0.0056 -0.0021,0 4.88e-4,0.0025 0.0059,0.0056 0.0054,0.0031 0.01152,0.0056 0.01367,0.0056 0.0021,0 -4.88e-4,-0.0025 -0.0059,-0.0056 z m -0.01986,-0.0075 c -0.0033,-0.0033 -0.102646,-0.04512 -0.104002,-0.04377 -7.73e-4,7.74e-4 0.02107,0.01119 0.04854,0.02315 0.04534,0.01974 0.06006,0.02521 0.05547,0.02062 z m -0.116854,-0.0511 c -0.0054,-0.0031 -0.01152,-0.0056 -0.01367,-0.0056 -0.0021,0 4.89e-4,0.0025 0.0059,0.0056 0.0054,0.0031 0.01152,0.0056 0.01367,0.0056 0.0021,0 -4.89e-4,-0.0025 -0.0059,-0.0056 z m -0.02734,-0.01172 c -0.0054,-0.0031 -0.01152,-0.0056 -0.01367,-0.0056 -0.0021,0 4.88e-4,0.0025 0.0059,0.0056 0.0054,0.0031 0.01152,0.0056 0.01367,0.0056 0.0021,0 -4.88e-4,-0.0025 -0.0059,-0.0056 z m -0.02734,-0.01172 c -0.0054,-0.0031 -0.01152,-0.0056 -0.01367,-0.0056 -0.0021,0 4.88e-4,0.0025 0.0059,0.0056 0.0054,0.0031 0.01152,0.0056 0.01367,0.0056 0.0021,0 -4.88e-4,-0.0025 -0.0059,-0.0056 z m -0.03516,-0.01563 c -0.0054,-0.0031 -0.01152,-0.0056 -0.01367,-0.0056 -0.0021,0 4.88e-4,0.0025 0.0059,0.0056 0.0054,0.0031 0.01152,0.0056 0.01367,0.0056 0.0021,0 -4.88e-4,-0.0025 -0.0059,-0.0056 z m -0.03125,-0.01367 c -0.0075,-0.0041 -0.01543,-0.0075 -0.01758,-0.0075 -0.0021,0 0.0022,0.0034 0.0098,0.0075 0.0075,0.0041 0.01543,0.0075 0.01758,0.0075 0.0021,0 -0.0022,-0.0034 -0.0098,-0.0075 z m -0.03906,-0.01758 c -0.0054,-0.0031 -0.01152,-0.0056 -0.01367,-0.0056 -0.0021,0 4.88e-4,0.0025 0.0059,0.0056 0.0054,0.0031 0.01152,0.0056 0.01367,0.0056 0.0021,0 -4.88e-4,-0.0025 -0.0059,-0.0056 z m -0.03516,-0.01563 c -0.0054,-0.0031 -0.01152,-0.0056 -0.01367,-0.0056 -0.0021,0 4.88e-4,0.0025 0.0059,0.0056 0.0054,0.0031 0.01152,0.0056 0.01367,0.0056 0.0021,0 -4.88e-4,-0.0025 -0.0059,-0.0056 z m -0.03516,-0.01563 c -0.0097,-0.0052 -0.01934,-0.0094 -0.02148,-0.0094 -0.0021,0 0.004,0.0042 0.01367,0.0094 0.0097,0.0052 0.01934,0.0094 0.02148,0.0094 0.0021,0 -0.004,-0.0042 -0.01367,-0.0094 z m -0.06641,-0.02992 c -0.02256,-0.01072 -0.09023,-0.0426 -0.15039,-0.07086 -0.120546,-0.05663 -0.448639,-0.21967 -0.536133,-0.266426 -0.03062,-0.01636 -0.05566,-0.02895 -0.05566,-0.02797 0,0.0068 0.371629,0.195618 0.548828,0.278874 0.17784,0.08356 0.226338,0.105832 0.230469,0.10585 0.0021,1.2e-5 -0.01455,-0.0087 -0.03711,-0.01946 z m -0.04339,-0.09485 c -0.0034,-0.0034 -0.133796,-0.06067 -0.135141,-0.05933 -7.61e-4,7.61e-4 0.02811,0.01468 0.06416,0.03093 0.05939,0.02677 0.076,0.03342 0.07098,0.0284 z m -0.178722,-0.08061 c -0.02226,-0.01058 -0.04159,-0.01908 -0.04297,-0.01889 -0.0037,4.99e-4 0.07494,0.03823 0.07953,0.03817 0.0021,-2.7e-5 -0.0143,-0.0087 -0.03656,-0.01928 z m -0.06695,-0.03095 c -0.01182,-0.0062 -0.02324,-0.01135 -0.02539,-0.01135 -0.0021,0 0.0058,0.0051 0.01758,0.01135 0.01182,0.0062 0.02324,0.01135 0.02539,0.01135 0.0021,0 -0.0058,-0.0051 -0.01758,-0.01135 z m -0.05078,-0.02344 c -0.01182,-0.0062 -0.02324,-0.01135 -0.02539,-0.01135 -0.0021,0 0.0058,0.0051 0.01758,0.01135 0.01182,0.0062 0.02324,0.01135 0.02539,0.01135 0.0021,0 -0.0058,-0.0051 -0.01758,-0.01135 z m -0.05859,-0.02734 c -0.01182,-0.0062 -0.02324,-0.01135 -0.02539,-0.01135 -0.0021,0 0.0058,0.0051 0.01758,0.01135 0.01182,0.0062 0.02324,0.01135 0.02539,0.01135 0.0021,0 -0.0058,-0.0051 -0.01758,-0.01135 z m -0.08984,-0.04297 c -0.02041,-0.01052 -0.03887,-0.01913 -0.04102,-0.01913 -0.0021,0 0.01279,0.0086 0.0332,0.01913 0.02041,0.01052 0.03887,0.01913 0.04102,0.01913 0.0021,0 -0.01279,-0.0086 -0.0332,-0.01913 z m -0.09375,-0.0445 c 0,-8.45e-4 -0.0027,-0.0026 -0.0061,-0.0039 -0.0035,-0.0013 -0.005,-6.79e-4 -0.0037,0.0015 0.0023,0.0037 0.0097,0.0055 0.0097,0.0023 z m -0.164062,-0.02378 c 0,-10e-4 -0.007,-0.0055 -0.01563,-0.0098 -0.0086,-0.0044 -0.01563,-0.0071 -0.01563,-0.006 0,0.0011 0.0066,0.0054 0.01465,0.0097 0.01657,0.0087 0.0166,0.0088 0.0166,0.0062 z m -0.0373,-0.02099 c -0.006,-0.0054 -0.06426,-0.03647 -0.06426,-0.03428 0,0.0019 0.06258,0.03739 0.06621,0.03754 9.67e-4,3.9e-5 8.8e-5,-0.0014 -0.002,-0.0033 z m 0.0998,-0.0064 c 0,-0.0011 -0.01934,-0.01162 -0.04297,-0.02347 -0.02363,-0.01185 -0.04297,-0.02067 -0.04297,-0.0196 0,0.0015 0.08032,0.04383 0.08496,0.04479 5.37e-4,1.11e-4 9.77e-4,-6.63e-4 9.77e-4,-0.0017 z m -0.167969,-0.03118 c 0,-10e-4 -0.0053,-0.0046 -0.01172,-0.0079 -0.01469,-0.0076 -0.01558,-0.0043 -9.77e-4,0.0036 0.01228,0.0067 0.0127,0.0068 0.0127,0.0043 z m -0.02795,-0.01568 c -0.001,-10e-4 -0.04404,-0.02713 -0.09553,-0.05797 -0.23414,-0.140205 -0.424735,-0.276901 -0.540137,-0.387391 -0.103195,-0.0988 -0.216901,-0.24753 -0.300474,-0.393019 -0.03398,-0.05915 -0.08951,-0.172483 -0.114089,-0.232835 -0.01157,-0.0284 -0.02171,-0.05095 -0.02255,-0.05012 -0.003,0.003 0.04394,0.110872 0.0774,0.177925 0.0723,0.144878 0.163399,0.284614 0.259902,0.398649 0.124463,0.147076 0.334383,0.308018 0.640126,0.490773 0.08422,0.05034 0.101469,0.06011 0.09535,0.05398 z m 0.106074,3.74e-4 c 0,-8.42e-4 -0.02428,-0.01473 -0.05397,-0.03087 -0.267544,-0.145434 -0.462274,-0.290856 -0.660877,-0.493535 -0.127872,-0.130496 -0.225169,-0.255507 -0.314198,-0.403694 -0.03582,-0.05962 -0.04755,-0.07653 -0.02577,-0.03717 0.09677,0.174955 0.256834,0.375019 0.421168,0.526425 0.182661,0.16829 0.34858,0.286578 0.573067,0.408553 0.06008,0.03264 0.06058,0.03289 0.06058,0.03029 z M 26.946138,42.92193 c -0.01871,-0.0375 -0.03463,-0.06757 -0.03537,-0.06683 -0.0017,0.0017 0.0649,0.135002 0.06748,0.135002 0.0011,0 -0.01339,-0.03068 -0.03211,-0.06818 z m -0.08357,-0.08373 c -0.0024,-0.0069 -0.0051,-0.01187 -0.0059,-0.01103 -8.35e-4,8.35e-4 4.5e-4,0.0072 0.0029,0.01407 0.0024,0.0069 0.0051,0.01187 0.0059,0.01103 8.36e-4,-8.35e-4 -4.49e-4,-0.0072 -0.0029,-0.01407 z m 0.0276,-0.03777 c -0.01074,-0.02565 -0.02125,-0.05016 -0.02336,-0.05446 -0.0033,-0.0067 -0.0035,-0.0064 -0.0013,0.002 0.0037,0.01415 0.04114,0.102215 0.0428,0.100552 7.73e-4,-7.73e-4 -0.0074,-0.02239 -0.01812,-0.04805 z m -0.04645,-0.123086 c -0.01055,-0.031 -0.01931,-0.05461 -0.01947,-0.05247 -4.39e-4,0.0057 0.0354,0.112095 0.03716,0.110332 8.2e-4,-8.2e-4 -0.0071,-0.02686 -0.01768,-0.05786 z m -0.03515,-0.11914 c -0.0084,-0.03208 -0.01539,-0.05569 -0.01553,-0.05246 -1.48e-4,0.0032 0.0059,0.02947 0.01337,0.05833 0.0075,0.02886 0.01364,0.05332 0.01364,0.05436 0,10e-4 8.54e-4,10e-4 0.0019,-2e-6 0.001,-10e-4 -0.005,-0.02814 -0.01337,-0.06022 z m -0.02527,-0.115411 c -0.01671,-0.09071 -0.0229,-0.156938 -0.02586,-0.276898 l -0.0028,-0.115234 0.0012,0.121094 c 9.03e-4,0.0943 0.0029,0.133787 0.009,0.178452 0.0088,0.06433 0.02413,0.148951 0.02659,0.146489 8.88e-4,-8.88e-4 -0.0027,-0.02514 -0.008,-0.0539 z"
     style="fill:#001806;stroke-width:0.00390625" /><path
     inkscape:connector-curvature="0"
     id="path41"
     d="m 30.163779,45.109502 c -1.109167,-0.401919 -2.028066,-0.804428 -2.536232,-1.110954 -0.207577,-0.12521 -0.299636,-0.193022 -0.414479,-0.305308 -0.176276,-0.17235 -0.311389,-0.358436 -0.418365,-0.576196 -0.124311,-0.253047 -0.191696,-0.502606 -0.209367,-0.77539 -0.0047,-0.07235 -0.0032,-0.291993 0.0021,-0.300486 0.0017,-0.0028 0.0289,-0.0042 0.07969,-0.0042 h 0.07709 l -1e-6,0.137695 c -2e-6,0.178901 0.01095,0.280767 0.04686,0.435996 0.01495,0.0646 0.04986,0.18488 0.05672,0.195435 0.0034,0.0052 0.0036,0.0049 0.0015,-0.0015 -0.07725,-0.237073 -0.106555,-0.43301 -0.100691,-0.673343 0.0021,-0.08513 0.0043,-0.104137 0.01022,-0.08935 0.0016,0.0039 0.002,0.0039 0.0023,0 2.46e-4,-0.0039 0.350733,-0.0049 1.73859,-0.0049 h 1.738281 v 1.4375 c 0,0.790625 -0.0014,1.4375 -0.0032,1.4375 -0.0063,0 -0.372001,-0.139801 -0.590558,-0.225787 -0.269646,-0.106087 -0.582643,-0.235063 -0.792595,-0.326602 -0.06552,-0.02857 -0.08456,-0.0358 -0.06189,-0.0235 0.01709,0.0093 0.297477,0.128673 0.444666,0.189359 0.25788,0.106324 0.707663,0.282875 0.936142,0.36746 l 0.06734,0.02493 4.6e-5,0.04385 4.6e-5,0.04385 -0.01074,-0.0041 c -0.08726,-0.03366 -0.143024,-0.05414 -0.144204,-0.05296 -8.06e-4,8.05e-4 0.03329,0.01467 0.07576,0.03082 l 0.07723,0.02935 0.0011,0.06301 c 5.9e-4,0.03466 -2.89e-4,0.06293 -0.002,0.06284 -0.0017,-9.6e-5 -0.03379,-0.01132 -0.07139,-0.02495 z m -0.09963,-0.1699 c -0.01815,-0.0081 -0.03602,-0.01394 -0.03317,-0.01086 0.0028,0.0031 0.04026,0.01796 0.04491,0.01789 0.0021,-3.5e-5 -0.0031,-0.0032 -0.01174,-0.007 z m -0.03752,-0.01374 c -0.0033,-0.0033 -0.113955,-0.04535 -0.115415,-0.04389 -8.01e-4,8.01e-4 0.02362,0.01128 0.05426,0.02329 0.05192,0.02034 0.06545,0.0249 0.06115,0.0206 z m -0.126526,-0.04935 c -0.02156,-0.01015 -0.312363,-0.124184 -0.313583,-0.122963 -0.0017,0.0017 0.311882,0.126882 0.31749,0.126741 0.0021,-5.5e-5 3.9e-4,-0.0018 -0.0039,-0.0038 z m -0.322265,-0.128604 c -0.0032,-0.0021 -0.0076,-0.0038 -0.0098,-0.0038 -0.0021,0 -0.0013,0.0017 0.002,0.0038 0.0032,0.0021 0.0076,0.0038 0.0098,0.0038 0.0021,0 0.0013,-0.0017 -0.002,-0.0038 z m -0.01615,-0.0057 c -0.0034,-0.0034 -0.125746,-0.05289 -0.127183,-0.05146 -0.0015,0.0015 0.119201,0.05248 0.125429,0.05299 0.002,1.61e-4 0.0028,-5.29e-4 0.0018,-0.0015 z m -0.132644,-0.05452 c -0.0033,-0.0033 -0.161166,-0.06859 -0.162534,-0.06722 -0.0015,0.0015 0.154619,0.06822 0.160612,0.06863 0.002,1.36e-4 0.0028,-4.99e-4 0.0019,-0.0014 z m -0.175425,-0.07451 c -0.0054,-0.0031 -0.01152,-0.0056 -0.01367,-0.0056 -0.0021,0 4.88e-4,0.0025 0.0059,0.0056 0.0054,0.0031 0.01152,0.0056 0.01367,0.0056 0.0021,0 -4.88e-4,-0.0025 -0.0059,-0.0056 z m -0.01986,-0.0075 c -0.0033,-0.0033 -0.102646,-0.04512 -0.104002,-0.04377 -7.73e-4,7.74e-4 0.02107,0.01119 0.04854,0.02315 0.04534,0.01974 0.06006,0.02521 0.05547,0.02062 z m -0.116854,-0.0511 c -0.0054,-0.0031 -0.01152,-0.0056 -0.01367,-0.0056 -0.0021,0 4.89e-4,0.0025 0.0059,0.0056 0.0054,0.0031 0.01152,0.0056 0.01367,0.0056 0.0021,0 -4.89e-4,-0.0025 -0.0059,-0.0056 z m -0.02734,-0.01172 c -0.0054,-0.0031 -0.01152,-0.0056 -0.01367,-0.0056 -0.0021,0 4.88e-4,0.0025 0.0059,0.0056 0.0054,0.0031 0.01152,0.0056 0.01367,0.0056 0.0021,0 -4.88e-4,-0.0025 -0.0059,-0.0056 z m -0.02734,-0.01172 c -0.0054,-0.0031 -0.01152,-0.0056 -0.01367,-0.0056 -0.0021,0 4.88e-4,0.0025 0.0059,0.0056 0.0054,0.0031 0.01152,0.0056 0.01367,0.0056 0.0021,0 -4.88e-4,-0.0025 -0.0059,-0.0056 z m -0.03516,-0.01563 c -0.0054,-0.0031 -0.01152,-0.0056 -0.01367,-0.0056 -0.0021,0 4.88e-4,0.0025 0.0059,0.0056 0.0054,0.0031 0.01152,0.0056 0.01367,0.0056 0.0021,0 -4.88e-4,-0.0025 -0.0059,-0.0056 z m -0.03125,-0.01367 c -0.0075,-0.0041 -0.01543,-0.0075 -0.01758,-0.0075 -0.0021,0 0.0022,0.0034 0.0098,0.0075 0.0075,0.0041 0.01543,0.0075 0.01758,0.0075 0.0021,0 -0.0022,-0.0034 -0.0098,-0.0075 z m -0.03906,-0.01758 c -0.0054,-0.0031 -0.01152,-0.0056 -0.01367,-0.0056 -0.0021,0 4.88e-4,0.0025 0.0059,0.0056 0.0054,0.0031 0.01152,0.0056 0.01367,0.0056 0.0021,0 -4.88e-4,-0.0025 -0.0059,-0.0056 z m -0.03516,-0.01563 c -0.0054,-0.0031 -0.01152,-0.0056 -0.01367,-0.0056 -0.0021,0 4.88e-4,0.0025 0.0059,0.0056 0.0054,0.0031 0.01152,0.0056 0.01367,0.0056 0.0021,0 -4.88e-4,-0.0025 -0.0059,-0.0056 z m -0.03516,-0.01563 c -0.0097,-0.0052 -0.01934,-0.0094 -0.02148,-0.0094 -0.0021,0 0.004,0.0042 0.01367,0.0094 0.0097,0.0052 0.01934,0.0094 0.02148,0.0094 0.0021,0 -0.004,-0.0042 -0.01367,-0.0094 z m -0.06641,-0.02992 c -0.02256,-0.01072 -0.09023,-0.0426 -0.15039,-0.07086 -0.120546,-0.05663 -0.448639,-0.21967 -0.536133,-0.266426 -0.03062,-0.01636 -0.05566,-0.02895 -0.05566,-0.02797 0,0.0068 0.371629,0.195618 0.548828,0.278874 0.17784,0.08356 0.226338,0.105832 0.230469,0.10585 0.0021,1.2e-5 -0.01455,-0.0087 -0.03711,-0.01946 z m -0.04339,-0.09485 c -0.0034,-0.0034 -0.133796,-0.06067 -0.135141,-0.05933 -7.61e-4,7.61e-4 0.02811,0.01468 0.06416,0.03093 0.05939,0.02677 0.076,0.03342 0.07098,0.0284 z m -0.178722,-0.08061 c -0.02226,-0.01058 -0.04159,-0.01908 -0.04297,-0.01889 -0.0037,4.99e-4 0.07494,0.03823 0.07953,0.03817 0.0021,-2.7e-5 -0.0143,-0.0087 -0.03656,-0.01928 z m -0.06695,-0.03095 c -0.01182,-0.0062 -0.02324,-0.01135 -0.02539,-0.01135 -0.0021,0 0.0058,0.0051 0.01758,0.01135 0.01182,0.0062 0.02324,0.01135 0.02539,0.01135 0.0021,0 -0.0058,-0.0051 -0.01758,-0.01135 z m -0.05078,-0.02344 c -0.01182,-0.0062 -0.02324,-0.01135 -0.02539,-0.01135 -0.0021,0 0.0058,0.0051 0.01758,0.01135 0.01182,0.0062 0.02324,0.01135 0.02539,0.01135 0.0021,0 -0.0058,-0.0051 -0.01758,-0.01135 z m -0.05859,-0.02734 c -0.01182,-0.0062 -0.02324,-0.01135 -0.02539,-0.01135 -0.0021,0 0.0058,0.0051 0.01758,0.01135 0.01182,0.0062 0.02324,0.01135 0.02539,0.01135 0.0021,0 -0.0058,-0.0051 -0.01758,-0.01135 z m -0.08984,-0.04297 c -0.02041,-0.01052 -0.03887,-0.01913 -0.04102,-0.01913 -0.0021,0 0.01279,0.0086 0.0332,0.01913 0.02041,0.01052 0.03887,0.01913 0.04102,0.01913 0.0021,0 -0.01279,-0.0086 -0.0332,-0.01913 z m -0.09375,-0.0445 c 0,-8.45e-4 -0.0027,-0.0026 -0.0061,-0.0039 -0.0035,-0.0013 -0.005,-6.79e-4 -0.0037,0.0015 0.0023,0.0037 0.0097,0.0055 0.0097,0.0023 z m -0.164062,-0.02378 c 0,-10e-4 -0.007,-0.0055 -0.01563,-0.0098 -0.0086,-0.0044 -0.01563,-0.0071 -0.01563,-0.006 0,0.0011 0.0066,0.0054 0.01465,0.0097 0.01657,0.0087 0.0166,0.0088 0.0166,0.0062 z m -0.0373,-0.02099 c -0.006,-0.0054 -0.06426,-0.03647 -0.06426,-0.03428 0,0.0019 0.06258,0.03739 0.06621,0.03754 9.67e-4,3.9e-5 8.8e-5,-0.0014 -0.002,-0.0033 z m 0.0998,-0.0064 c 0,-0.0011 -0.01934,-0.01162 -0.04297,-0.02347 -0.02363,-0.01185 -0.04297,-0.02067 -0.04297,-0.0196 0,0.0015 0.08032,0.04383 0.08496,0.04479 5.37e-4,1.11e-4 9.77e-4,-6.63e-4 9.77e-4,-0.0017 z m -0.167969,-0.03118 c 0,-10e-4 -0.0053,-0.0046 -0.01172,-0.0079 -0.01469,-0.0076 -0.01558,-0.0043 -9.77e-4,0.0036 0.01228,0.0067 0.0127,0.0068 0.0127,0.0043 z m -0.02795,-0.01568 c -0.001,-10e-4 -0.04404,-0.02713 -0.09553,-0.05797 -0.23414,-0.140205 -0.424735,-0.276901 -0.540137,-0.387391 -0.103195,-0.0988 -0.216901,-0.24753 -0.300474,-0.393019 -0.03398,-0.05915 -0.08951,-0.172483 -0.114089,-0.232835 -0.01157,-0.0284 -0.02171,-0.05095 -0.02255,-0.05012 -0.003,0.003 0.04394,0.110872 0.0774,0.177925 0.0723,0.144878 0.163399,0.284614 0.259902,0.398649 0.124463,0.147076 0.334383,0.308018 0.640126,0.490773 0.08422,0.05034 0.101469,0.06011 0.09535,0.05398 z m 0.106074,3.74e-4 c 0,-8.42e-4 -0.02428,-0.01473 -0.05397,-0.03087 -0.267544,-0.145434 -0.462274,-0.290856 -0.660877,-0.493535 -0.127872,-0.130496 -0.225169,-0.255507 -0.314198,-0.403694 -0.03582,-0.05962 -0.04755,-0.07653 -0.02577,-0.03717 0.09677,0.174955 0.256834,0.375019 0.421168,0.526425 0.182661,0.16829 0.34858,0.286578 0.573067,0.408553 0.06008,0.03264 0.06058,0.03289 0.06058,0.03029 z M 26.946138,42.92193 c -0.01871,-0.0375 -0.03463,-0.06757 -0.03537,-0.06683 -0.0017,0.0017 0.0649,0.135002 0.06748,0.135002 0.0011,0 -0.01339,-0.03068 -0.03211,-0.06818 z m -0.08357,-0.08373 c -0.0024,-0.0069 -0.0051,-0.01187 -0.0059,-0.01103 -8.35e-4,8.35e-4 4.5e-4,0.0072 0.0029,0.01407 0.0024,0.0069 0.0051,0.01187 0.0059,0.01103 8.36e-4,-8.35e-4 -4.49e-4,-0.0072 -0.0029,-0.01407 z m 0.0276,-0.03777 c -0.01074,-0.02565 -0.02125,-0.05016 -0.02336,-0.05446 -0.0033,-0.0067 -0.0035,-0.0064 -0.0013,0.002 0.0037,0.01415 0.04114,0.102215 0.0428,0.100552 7.73e-4,-7.73e-4 -0.0074,-0.02239 -0.01812,-0.04805 z m -0.04645,-0.123086 c -0.01055,-0.031 -0.01931,-0.05461 -0.01947,-0.05247 -4.39e-4,0.0057 0.0354,0.112095 0.03716,0.110332 8.2e-4,-8.2e-4 -0.0071,-0.02686 -0.01768,-0.05786 z m -0.03515,-0.11914 c -0.0084,-0.03208 -0.01539,-0.05569 -0.01553,-0.05246 -1.48e-4,0.0032 0.0059,0.02947 0.01337,0.05833 0.0075,0.02886 0.01364,0.05332 0.01364,0.05436 0,10e-4 8.54e-4,10e-4 0.0019,-2e-6 0.001,-10e-4 -0.005,-0.02814 -0.01337,-0.06022 z m -0.02527,-0.115411 c -0.01671,-0.09071 -0.0229,-0.156938 -0.02586,-0.276898 l -0.0028,-0.115234 0.0012,0.121094 c 9.03e-4,0.0943 0.0029,0.133787 0.009,0.178452 0.0088,0.06433 0.02413,0.148951 0.02659,0.146489 8.88e-4,-8.88e-4 -0.0027,-0.02514 -0.008,-0.0539 z"
     style="fill:#001806;stroke-width:0.00390625" /><path
     inkscape:connector-curvature="0"
     id="path43"
     d="m 30.208701,45.126857 c -0.01074,-0.004 -0.08721,-0.03222 -0.169922,-0.06261 -1.003472,-0.368657 -1.809369,-0.71995 -2.316406,-1.009732 -0.299476,-0.171156 -0.441397,-0.278406 -0.599727,-0.453214 -0.291457,-0.321792 -0.47775,-0.728563 -0.529486,-1.156133 -0.0062,-0.0512 -0.0085,-0.09906 -0.01002,-0.208984 -0.0011,-0.07842 -5.3e-4,-0.154883 0.0012,-0.169922 l 0.0032,-0.02734 0.07898,-0.0011 0.07898,-0.0011 0.0012,0.04598 0.0012,0.04598 8.4e-4,-0.04588 8.4e-4,-0.04588 1.74414,-2.5e-5 1.744141,-2.6e-5 v 1.437183 c 0,1.146091 -9.89e-4,1.437582 -0.0049,1.439153 -0.0037,0.0015 -0.0038,0.002 -9.7e-5,0.0023 0.007,4.51e-4 0.0071,0.219149 6.2e-5,0.218855 -0.0027,-1.12e-4 -0.01364,-0.0035 -0.02438,-0.0076 z m -0.236328,-0.222703 c -0.0032,-0.0021 -0.0076,-0.0038 -0.0098,-0.0038 -0.0021,0 -0.0013,0.0017 0.002,0.0038 0.0032,0.0021 0.0076,0.0038 0.0098,0.0038 0.0021,0 0.0013,-0.0017 -0.002,-0.0038 z m 0.175781,-0.02344 c -0.0032,-0.0021 -0.0076,-0.0038 -0.0098,-0.0038 -0.0021,0 -0.0013,0.0017 0.002,0.0038 0.0032,0.0021 0.0076,0.0038 0.0098,0.0038 0.0021,0 0.0013,-0.0017 -0.002,-0.0038 z m -0.03125,-0.01172 c -0.0032,-0.0021 -0.0076,-0.0038 -0.0098,-0.0038 -0.0021,0 -0.0013,0.0017 0.002,0.0038 0.0032,0.0021 0.0076,0.0038 0.0098,0.0038 0.0021,0 0.0013,-0.0017 -0.002,-0.0038 z m -0.03125,-0.01172 c -0.0032,-0.0021 -0.0076,-0.0038 -0.0098,-0.0038 -0.0021,0 -0.0013,0.0017 0.002,0.0038 0.0032,0.0021 0.0076,0.0038 0.0098,0.0038 0.0021,0 0.0013,-0.0017 -0.002,-0.0038 z m -0.08203,-0.03125 c -0.0032,-0.0021 -0.0076,-0.0038 -0.0098,-0.0038 -0.0021,0 -0.0013,0.0017 0.002,0.0038 0.0032,0.0021 0.0076,0.0038 0.0098,0.0038 0.0021,0 0.0013,-0.0017 -0.002,-0.0038 z m -0.05078,-0.01953 c -0.0032,-0.0021 -0.0076,-0.0038 -0.0098,-0.0038 -0.0021,0 -0.0013,0.0017 0.002,0.0038 0.0032,0.0021 0.0076,0.0038 0.0098,0.0038 0.0021,0 0.0013,-0.0017 -0.002,-0.0038 z m -0.05078,-0.01953 c -0.0032,-0.0021 -0.0076,-0.0038 -0.0098,-0.0038 -0.0021,0 -0.0013,0.0017 0.002,0.0038 0.0032,0.0021 0.0076,0.0038 0.0098,0.0038 0.0021,0 0.0013,-0.0017 -0.002,-0.0038 z m -0.210938,-0.08203 c -0.0032,-0.0021 -0.0076,-0.0038 -0.0098,-0.0038 -0.0021,0 -0.0013,0.0017 0.002,0.0038 0.0032,0.0021 0.0076,0.0038 0.0098,0.0038 0.0021,0 0.0013,-0.0017 -0.002,-0.0038 z m -0.3125,-0.03906 c -0.0032,-0.0021 -0.0076,-0.0038 -0.0098,-0.0038 -0.0021,0 -0.0013,0.0017 0.002,0.0038 0.0032,0.0021 0.0076,0.0038 0.0098,0.0038 0.0021,0 0.0013,-0.0017 -0.002,-0.0038 z m 0.144531,-0.02734 c -0.0032,-0.0021 -0.0076,-0.0038 -0.0098,-0.0038 -0.0021,0 -0.0013,0.0017 0.002,0.0038 0.0032,0.0021 0.0076,0.0038 0.0098,0.0038 0.0021,0 0.0013,-0.0017 -0.002,-0.0038 z m -0.01953,-0.0078 c -0.0032,-0.0021 -0.0076,-0.0038 -0.0098,-0.0038 -0.0021,0 -0.0013,0.0017 0.002,0.0038 0.0032,0.0021 0.0076,0.0038 0.0098,0.0038 0.0021,0 0.0013,-0.0017 -0.002,-0.0038 z m -0.01953,-0.0078 c -0.0032,-0.0021 -0.0076,-0.0038 -0.0098,-0.0038 -0.0021,0 -0.0013,0.0017 0.002,0.0038 0.0032,0.0021 0.0076,0.0038 0.0098,0.0038 0.0021,0 0.0013,-0.0017 -0.002,-0.0038 z m -0.01953,-0.0078 c -0.0032,-0.0021 -0.0076,-0.0038 -0.0098,-0.0038 -0.0021,0 -0.0013,0.0017 0.002,0.0038 0.0032,0.0021 0.0076,0.0038 0.0098,0.0038 0.0021,0 0.0013,-0.0017 -0.002,-0.0038 z m -0.01953,-0.0078 c -0.0032,-0.0021 -0.0076,-0.0038 -0.0098,-0.0038 -0.0021,0 -0.0013,0.0017 0.002,0.0038 0.0032,0.0021 0.0076,0.0038 0.0098,0.0038 0.0021,0 0.0013,-0.0017 -0.002,-0.0038 z m -0.01953,-0.0078 c -0.0032,-0.0021 -0.0076,-0.0038 -0.0098,-0.0038 -0.0021,0 -0.0013,0.0017 0.002,0.0038 0.0032,0.0021 0.0076,0.0038 0.0098,0.0038 0.0021,0 0.0013,-0.0017 -0.002,-0.0038 z m -0.01953,-0.0078 c -0.0032,-0.0021 -0.0076,-0.0038 -0.0098,-0.0038 -0.0021,0 -0.0013,0.0017 0.002,0.0038 0.0032,0.0021 0.0076,0.0038 0.0098,0.0038 0.0021,0 0.0013,-0.0017 -0.002,-0.0038 z m -0.01953,-0.0078 c -0.0032,-0.0021 -0.0076,-0.0038 -0.0098,-0.0038 -0.0021,0 -0.0013,0.0017 0.002,0.0038 0.0032,0.0021 0.0076,0.0038 0.0098,0.0038 0.0021,0 0.0013,-0.0017 -0.002,-0.0038 z m -0.210938,-0.0039 c -0.0032,-0.0021 -0.0076,-0.0038 -0.0098,-0.0038 -0.0021,0 -0.0013,0.0017 0.002,0.0038 0.0032,0.0021 0.0076,0.0038 0.0098,0.0038 0.0021,0 0.0013,-0.0017 -0.002,-0.0038 z m 0.144531,-0.02344 c -0.0032,-0.0021 -0.0076,-0.0038 -0.0098,-0.0038 -0.0021,0 -0.0013,0.0017 0.002,0.0038 0.0032,0.0021 0.0076,0.0038 0.0098,0.0038 0.0021,0 0.0013,-0.0017 -0.002,-0.0038 z m -0.01953,-0.0078 c -0.0032,-0.0021 -0.0076,-0.0038 -0.0098,-0.0038 -0.0021,0 -0.0013,0.0017 0.002,0.0038 0.0032,0.0021 0.0076,0.0038 0.0098,0.0038 0.0021,0 0.0013,-0.0017 -0.002,-0.0038 z m -0.01953,-0.0078 c -0.0032,-0.0021 -0.0076,-0.0038 -0.0098,-0.0038 -0.0021,0 -0.0013,0.0017 0.002,0.0038 0.0032,0.0021 0.0076,0.0038 0.0098,0.0038 0.0021,0 0.0013,-0.0017 -0.002,-0.0038 z m -0.01953,-0.0078 c -0.0032,-0.0021 -0.0076,-0.0038 -0.0098,-0.0038 -0.0021,0 -0.0013,0.0017 0.002,0.0038 0.0032,0.0021 0.0076,0.0038 0.0098,0.0038 0.0021,0 0.0013,-0.0017 -0.002,-0.0038 z m -0.02734,-0.01172 c -0.0032,-0.0021 -0.0076,-0.0038 -0.0098,-0.0038 -0.0021,0 -0.0013,0.0017 0.002,0.0038 0.0032,0.0021 0.0076,0.0038 0.0098,0.0038 0.0021,0 0.0013,-0.0017 -0.002,-0.0038 z m -0.01953,-0.0078 c -0.0032,-0.0021 -0.0076,-0.0038 -0.0098,-0.0038 -0.0021,0 -0.0013,0.0017 0.002,0.0038 0.0032,0.0021 0.0076,0.0038 0.0098,0.0038 0.0021,0 0.0013,-0.0017 -0.002,-0.0038 z m -0.04687,-0.01953 c -0.0032,-0.0021 -0.0076,-0.0038 -0.0098,-0.0038 -0.0021,0 -0.0013,0.0017 0.002,0.0038 0.0032,0.0021 0.0076,0.0038 0.0098,0.0038 0.0021,0 0.0013,-0.0017 -0.002,-0.0038 z m -0.121094,-0.05078 c -0.0032,-0.0021 -0.0076,-0.0038 -0.0098,-0.0038 -0.0021,0 -0.0013,0.0017 0.002,0.0038 0.0032,0.0021 0.0076,0.0038 0.0098,0.0038 0.0021,0 0.0013,-0.0017 -0.002,-0.0038 z m -0.253906,-0.0332 c -0.0054,-0.0031 -0.01152,-0.0056 -0.01367,-0.0056 -0.0021,0 4.88e-4,0.0025 0.0059,0.0056 0.0054,0.0031 0.01152,0.0056 0.01367,0.0056 0.0021,0 -4.88e-4,-0.0025 -0.0059,-0.0056 z m -0.05469,-0.02539 c -0.0032,-0.0021 -0.0076,-0.0038 -0.0098,-0.0038 -0.0021,0 -0.0013,0.0017 0.002,0.0038 0.0032,0.0021 0.0076,0.0038 0.0098,0.0038 0.0021,0 0.0013,-0.0017 -0.002,-0.0038 z m -0.05859,-0.02734 c -0.0075,-0.0041 -0.01543,-0.0075 -0.01758,-0.0075 -0.0021,0 0.0022,0.0034 0.0098,0.0075 0.0075,0.0041 0.01543,0.0075 0.01758,0.0075 0.0021,0 -0.0022,-0.0034 -0.0098,-0.0075 z m -0.07813,-0.03711 c -0.01826,-0.0095 -0.03496,-0.01719 -0.03711,-0.01719 -0.0021,0 0.01103,0.0077 0.0293,0.01719 0.01826,0.0095 0.03496,0.01719 0.03711,0.01719 0.0021,0 -0.01103,-0.0077 -0.0293,-0.01719 z m -0.136718,-0.06641 c -0.04404,-0.02233 -0.08184,-0.0406 -0.08398,-0.0406 -0.0021,0 0.03213,0.01827 0.07617,0.0406 0.04404,0.02233 0.08184,0.0406 0.08398,0.0406 0.0021,0 -0.03213,-0.01827 -0.07617,-0.0406 z m -0.09547,-0.047 c -0.0042,-0.0032 -0.0094,-0.0057 -0.01172,-0.0056 -0.0023,7.6e-5 2.58e-4,0.0027 0.0056,0.0057 0.01265,0.0072 0.01573,0.0072 0.0061,-1.24e-4 z m -0.05687,-0.02718 c 0,-0.0011 -0.01582,-0.0099 -0.03516,-0.01957 -0.01934,-0.0097 -0.03516,-0.01678 -0.03516,-0.01571 0,0.0015 0.06481,0.03608 0.06934,0.03699 5.37e-4,1.08e-4 9.77e-4,-6.64e-4 9.77e-4,-0.0017 z m -0.136719,-0.07025 c 0,-0.001 -0.0053,-0.0046 -0.01172,-0.0079 -0.01469,-0.0076 -0.01558,-0.0043 -9.76e-4,0.0036 0.01227,0.0067 0.0127,0.0068 0.0127,0.0043 z m -0.46875,-0.331653 c 0,-8.11e-4 -0.0031,-0.0039 -0.0068,-0.0068 -0.0062,-0.0049 -0.0063,-0.0047 -0.0015,0.0015 0.0051,0.0065 0.0083,0.0086 0.0083,0.0054 z m -0.105469,-0.0078 c 0,-8.11e-4 -0.0031,-0.0039 -0.0068,-0.0068 -0.0062,-0.0049 -0.0063,-0.0047 -0.0015,0.0015 0.0051,0.0065 0.0083,0.0086 0.0083,0.0054 z m 0.05078,-0.03125 c 0,-8.11e-4 -0.0031,-0.0039 -0.0068,-0.0068 -0.0062,-0.0049 -0.0063,-0.0047 -0.0015,0.0015 0.0051,0.0065 0.0083,0.0086 0.0083,0.0054 z m -0.01563,-0.01172 c 0,-8.11e-4 -0.0031,-0.0039 -0.0068,-0.0068 -0.0062,-0.0049 -0.0063,-0.0047 -0.0015,0.0015 0.0051,0.0065 0.0083,0.0086 0.0083,0.0054 z m -0.01563,-0.01172 c 0,-8.11e-4 -0.0031,-0.0039 -0.0068,-0.0068 -0.0062,-0.0049 -0.0063,-0.0047 -0.0015,0.0015 0.0051,0.0065 0.0083,0.0086 0.0083,0.0054 z m -0.113282,-0.01172 c 0,-8.11e-4 -0.0031,-0.0039 -0.0068,-0.0068 -0.0062,-0.0049 -0.0063,-0.0047 -0.0015,0.0015 0.0051,0.0065 0.0083,0.0086 0.0083,0.0054 z m 0.09375,-0.0039 c 0,-8.11e-4 -0.0031,-0.0039 -0.0068,-0.0068 -0.0062,-0.0049 -0.0063,-0.0047 -0.0015,0.0015 0.0051,0.0065 0.0083,0.0086 0.0083,0.0054 z m -0.109375,-0.0078 c 0,-8.11e-4 -0.0031,-0.0039 -0.0068,-0.0068 -0.0062,-0.0049 -0.0063,-0.0047 -0.0015,0.0015 0.0051,0.0065 0.0083,0.0086 0.0083,0.0054 z m 0.09375,-0.0039 c 0,-8.11e-4 -0.0031,-0.0039 -0.0068,-0.0068 -0.0062,-0.0049 -0.0063,-0.0047 -0.0015,0.0015 0.0051,0.0065 0.0083,0.0086 0.0083,0.0054 z m -0.109375,-0.0078 c 0,-8.11e-4 -0.0031,-0.0039 -0.0068,-0.0068 -0.0062,-0.0049 -0.0063,-0.0047 -0.0015,0.0015 0.0051,0.0065 0.0083,0.0086 0.0083,0.0054 z m -0.01563,-0.01172 c 0,-8.11e-4 -0.0031,-0.0039 -0.0068,-0.0068 -0.0062,-0.0049 -0.0063,-0.0047 -0.0015,0.0015 0.0051,0.0065 0.0083,0.0086 0.0083,0.0054 z m 0.08203,-0.01563 c 0,-8.11e-4 -0.0031,-0.0039 -0.0068,-0.0068 -0.0062,-0.0049 -0.0063,-0.0047 -0.0015,0.0015 0.0051,0.0065 0.0083,0.0086 0.0083,0.0054 z m -0.117188,-0.01172 c 0,-8.11e-4 -0.0031,-0.0039 -0.0068,-0.0068 -0.0062,-0.0049 -0.0063,-0.0047 -0.0015,0.0015 0.0051,0.0065 0.0083,0.0086 0.0083,0.0054 z m 0.09766,-0.0038 c 0,-7.41e-4 -0.004,-0.0047 -0.0088,-0.0088 l -0.0088,-0.0074 0.0074,0.0088 c 0.007,0.0083 0.01014,0.01057 0.01014,0.0074 z m -0.117187,-0.01185 c 0,-8.11e-4 -0.0031,-0.0039 -0.0068,-0.0068 -0.0062,-0.0049 -0.0063,-0.0047 -0.0015,0.0015 0.0051,0.0065 0.0083,0.0086 0.0083,0.0054 z m 0.08594,-0.01563 c 0,-8.11e-4 -0.0031,-0.0039 -0.0068,-0.0068 -0.0062,-0.0049 -0.0063,-0.0047 -0.0015,0.0015 0.0051,0.0065 0.0083,0.0086 0.0083,0.0054 z m -0.109375,-0.0039 c 0,-8.11e-4 -0.0031,-0.0039 -0.0068,-0.0068 -0.0062,-0.0049 -0.0063,-0.0047 -0.0015,0.0015 0.0051,0.0065 0.0083,0.0086 0.0083,0.0054 z m -0.02344,-0.0194 c 0,-7.42e-4 -0.004,-0.0047 -0.0088,-0.0088 l -0.0088,-0.0074 0.0074,0.0088 c 0.007,0.0083 0.01014,0.01057 0.01014,0.0074 z m 0.105469,1.25e-4 c 0,-6.72e-4 -0.0057,-0.0064 -0.0127,-0.0127 l -0.0127,-0.01147 0.01147,0.0127 c 0.01069,0.01183 0.01392,0.01449 0.01392,0.01147 z m -0.189946,-0.08179 c -0.02787,-0.02847 -0.06534,-0.06977 -0.08326,-0.0918 -0.01792,-0.02202 -0.03343,-0.04004 -0.03446,-0.04004 -0.0019,0 0.01284,0.01893 0.04558,0.05859 0.01899,0.02301 0.1176,0.125 0.120854,0.125 0.0011,0 -0.02085,-0.02329 -0.04872,-0.05176 z m 0.150883,0.04676 c 0,-6e-4 -0.01187,-0.01246 -0.02637,-0.02637 l -0.02637,-0.02528 0.02528,0.02637 c 0.02348,0.02449 0.02746,0.02815 0.02746,0.02528 z m -0.09375,-0.09375 c 0,-6e-4 -0.01187,-0.01246 -0.02637,-0.02637 l -0.02637,-0.02528 0.02528,0.02637 c 0.02348,0.02449 0.02746,0.02815 0.02746,0.02528 z m -0.05859,-0.0626 c 0,-6.53e-4 -0.0066,-0.0072 -0.01465,-0.01465 l -0.01465,-0.01346 0.01346,0.01465 c 0.01253,0.01363 0.01584,0.01644 0.01584,0.01346 z m -0.127218,-0.03983 c -0.0057,-0.0075 -0.01131,-0.01367 -0.01239,-0.01367 -0.0019,0 0.0028,0.0069 0.01407,0.02051 0.01026,0.01239 0.009,0.0071 -0.0017,-0.0068 z m 0.09206,6.06e-4 c 0,-7.41e-4 -0.004,-0.0047 -0.0088,-0.0088 l -0.0088,-0.0074 0.0074,0.0088 c 0.007,0.0083 0.01014,0.01057 0.01014,0.0074 z m -0.105469,-0.01966 c 0,-8.11e-4 -0.0031,-0.0039 -0.0068,-0.0068 -0.0062,-0.0049 -0.0063,-0.0047 -0.0015,0.0015 0.0051,0.0065 0.0083,0.0086 0.0083,0.0054 z m 0.08203,-0.0078 c 0,-8.11e-4 -0.0031,-0.0039 -0.0068,-0.0068 -0.0062,-0.0049 -0.0063,-0.0047 -0.0015,0.0015 0.0051,0.0065 0.0083,0.0086 0.0083,0.0054 z m -0.09375,-0.0078 c 0,-8.11e-4 -0.0031,-0.0039 -0.0068,-0.0068 -0.0062,-0.0049 -0.0063,-0.0047 -0.0015,0.0015 0.0051,0.0065 0.0083,0.0086 0.0083,0.0054 z m 0.07422,-0.01563 c 0,-8.11e-4 -0.0031,-0.0039 -0.0068,-0.0068 -0.0062,-0.0049 -0.0063,-0.0047 -0.0015,0.0015 0.0051,0.0065 0.0083,0.0086 0.0083,0.0054 z m -0.01563,-0.01953 c 0,-8.11e-4 -0.0031,-0.0039 -0.0068,-0.0068 -0.0062,-0.0049 -0.0063,-0.0047 -0.0015,0.0015 0.0051,0.0065 0.0083,0.0086 0.0083,0.0054 z m -0.03906,-0.05078 c 0,-8.11e-4 -0.0031,-0.0039 -0.0068,-0.0068 -0.0062,-0.0049 -0.0063,-0.0047 -0.0015,0.0015 0.0051,0.0065 0.0083,0.0086 0.0083,0.0054 z m -0.179688,-0.174306 c -0.0023,-0.0043 -0.0051,-0.0078 -0.0061,-0.0078 -0.0011,0 -7.2e-5,0.0035 0.0022,0.0078 0.0023,0.0043 0.0051,0.0078 0.0061,0.0078 0.0011,0 7.2e-5,-0.0035 -0.0022,-0.0078 z m -0.01514,-0.02839 c -0.0039,-0.0038 -0.0043,-0.0034 -0.0022,0.0022 0.0015,0.0039 0.0037,0.006 0.0049,0.0048 0.0012,-0.0012 3e-6,-0.0044 -0.0027,-0.007 z m -0.154066,-0.433284 c -0.0012,-0.0031 -0.0022,-0.0022 -0.0024,0.0024 -1.7e-4,0.0041 7.53e-4,0.0064 0.0021,0.0051 0.0013,-0.0013 0.0014,-0.0047 3.09e-4,-0.0075 z m -0.0078,-0.03516 c -0.0012,-0.0031 -0.0022,-0.0022 -0.0024,0.0024 -1.69e-4,0.0041 7.54e-4,0.0064 0.0021,0.0051 0.0013,-0.0013 0.0014,-0.0047 3.08e-4,-0.0075 z m -0.0039,-0.01953 c -0.0012,-0.0031 -0.0022,-0.0022 -0.0024,0.0024 -1.7e-4,0.0041 7.54e-4,0.0064 0.0021,0.0051 0.0013,-0.0013 0.0014,-0.0047 3.08e-4,-0.0075 z m -0.0039,-0.01953 c -0.0012,-0.0031 -0.0022,-0.0022 -0.0024,0.0024 -1.7e-4,0.0041 7.53e-4,0.0064 0.0021,0.0051 0.0013,-0.0013 0.0014,-0.0047 3.09e-4,-0.0075 z m -0.0039,-0.02344 c -0.0012,-0.0031 -0.0022,-0.0022 -0.0024,0.0024 -1.69e-4,0.0041 7.54e-4,0.0064 0.0021,0.0051 0.0013,-0.0013 0.0014,-0.0047 3.08e-4,-0.0075 z m -0.004,-0.02368 c -0.0011,-0.0027 -0.002,-4.89e-4 -0.002,0.0049 0,0.0054 8.86e-4,0.0076 0.002,0.0049 0.0011,-0.0027 0.0011,-0.0071 0,-0.0098 z m 0.01961,-0.0076 c -0.0012,-0.0031 -0.0022,-0.0022 -0.0024,0.0024 -1.69e-4,0.0041 7.54e-4,0.0064 0.0021,0.0051 0.0013,-0.0013 0.0014,-0.0047 3.08e-4,-0.0075 z m -0.0234,-0.02165 c -9.91e-4,-0.0038 -0.0019,-0.0016 -0.0019,0.0048 -8e-5,0.0064 7.31e-4,0.0096 0.0018,0.0069 0.0011,-0.0026 0.0011,-0.0079 1.45e-4,-0.01172 z m -0.0039,-0.02742 c -9.83e-4,-0.0038 -0.0018,-6.83e-4 -0.0018,0.0068 0,0.0075 8.03e-4,0.0106 0.0018,0.0068 9.83e-4,-0.0038 9.83e-4,-0.0099 0,-0.01367 z m 0.01951,0.0061 c -0.0012,-0.0031 -0.0022,-0.0022 -0.0024,0.0024 -1.7e-4,0.0041 7.54e-4,0.0064 0.0021,0.0051 0.0013,-0.0013 0.0014,-0.0047 3.08e-4,-0.0075 z m -0.0039,-0.02344 c -0.0012,-0.0031 -0.0022,-0.0022 -0.0024,0.0024 -1.7e-4,0.0041 7.53e-4,0.0064 0.0021,0.0051 0.0013,-0.0013 0.0014,-0.0047 3.09e-4,-0.0075 z m -0.01944,-0.01582 c -9.35e-4,-0.0049 -0.0017,-0.0018 -0.0018,0.0068 -4.3e-5,0.0086 7.21e-4,0.01257 0.0017,0.0088 9.78e-4,-0.0037 0.001,-0.01077 7.9e-5,-0.01563 z m 0.01545,-0.01176 c -0.0011,-0.0027 -0.002,-4.88e-4 -0.002,0.0049 0,0.0054 8.86e-4,0.0076 0.002,0.0049 0.0011,-0.0027 0.0011,-0.0071 0,-0.0098 z m -0.01936,-0.0312 c -9.35e-4,-0.0049 -0.0017,-0.0018 -0.0018,0.0068 -4.3e-5,0.0086 7.21e-4,0.01257 0.0017,0.0088 9.77e-4,-0.0037 10e-4,-0.01077 7.9e-5,-0.01563 z m 0.01545,0.0039 c -0.0011,-0.0027 -0.002,-4.88e-4 -0.002,0.0049 0,0.0054 8.86e-4,0.0076 0.002,0.0049 0.0011,-0.0027 0.0011,-0.0071 0,-0.0098 z m -0.0038,-0.03711 c -9.82e-4,-0.0038 -0.0018,-6.83e-4 -0.0018,0.0068 0,0.0075 8.04e-4,0.0106 0.0018,0.0068 9.83e-4,-0.0038 9.83e-4,-0.0099 0,-0.01367 z m -0.01547,-0.03507 c -8.45e-4,-0.0081 -0.0016,-0.0024 -0.0016,0.01261 -1.7e-5,0.01504 6.75e-4,0.02167 0.0015,0.01474 8.63e-4,-0.0069 8.77e-4,-0.01924 3.1e-5,-0.02734 z m 0.01163,-0.01376 c -9.31e-4,-0.0048 -0.0017,-8.79e-4 -0.0017,0.0088 0,0.0097 7.62e-4,0.01362 0.0017,0.0088 9.31e-4,-0.0048 9.31e-4,-0.01274 0,-0.01758 z"
     style="fill:#001806;stroke-width:0.00390625" /><path
     inkscape:connector-curvature="0"
     id="path45"
     d="m 30.052451,45.208079 c -0.723546,-0.274269 -1.436562,-0.567108 -2.154297,-0.88478 -0.235823,-0.104376 -0.331492,-0.15392 -0.459422,-0.237921 -0.128061,-0.08409 -0.234094,-0.170928 -0.347305,-0.284443 -0.115893,-0.116205 -0.185657,-0.201049 -0.273259,-0.332328 -0.09787,-0.14667 -0.168071,-0.282184 -0.229666,-0.44336 -0.116525,-0.304912 -0.162838,-0.61766 -0.140997,-0.952148 l 0.0024,-0.03613 h 0.06545 0.06545 l -0.0014,0.03418 c -0.006,0.14319 -0.0022,0.290366 0.0099,0.383789 0.06069,0.468861 0.267411,0.890242 0.601865,1.226859 0.09073,0.09132 0.157235,0.144208 0.296639,0.235912 0.3953,0.260039 1.108064,0.59763 1.963127,0.929809 0.22765,0.08844 0.60998,0.231776 0.742187,0.27825 0.02148,0.0076 0.04042,0.01496 0.04209,0.01647 0.0017,0.0015 0.0025,0.0326 0.002,0.06909 l -0.0011,0.06635 z"
     style="fill:#001806;stroke-width:0.00390625" /><path
     inkscape:connector-curvature="0"
     id="path47"
     d="m 30.191123,45.260685 c -0.705578,-0.264806 -1.421279,-0.555416 -2.107422,-0.855717 -0.385124,-0.168556 -0.442248,-0.19573 -0.5625,-0.26758 -0.353527,-0.21123 -0.63902,-0.514387 -0.828462,-0.879719 -0.133373,-0.257206 -0.210509,-0.51848 -0.242264,-0.820597 -0.0072,-0.06843 -0.0096,-0.293062 -0.004,-0.36202 l 0.0031,-0.03809 0.06507,2e-6 0.06507,1e-6 v 0.170897 c 0,0.17888 0.0012,0.197391 0.01979,0.313201 0.04124,0.25646 0.125098,0.494926 0.251569,0.71539 0.131509,0.229244 0.316095,0.446288 0.493485,0.580259 0.451266,0.34081 1.431597,0.793743 2.772262,1.280841 0.06338,0.02303 0.116596,0.04312 0.11826,0.04464 0.0017,0.0015 0.0025,0.0326 0.002,0.06906 l -0.0011,0.06629 z"
     style="fill:#001806;stroke-width:0.00390625" /><path
     inkscape:connector-curvature="0"
     id="path49"
     d="m 30.177451,45.255864 c -0.03223,-0.01227 -0.120117,-0.04567 -0.195312,-0.07422 -0.665359,-0.252645 -1.390632,-0.551112 -2.072266,-0.852785 -0.261591,-0.115774 -0.336398,-0.154544 -0.476562,-0.246989 -0.127135,-0.08385 -0.222491,-0.161903 -0.336332,-0.275297 -0.09145,-0.09109 -0.140391,-0.146815 -0.207626,-0.236406 -0.267743,-0.356768 -0.421312,-0.778821 -0.444717,-1.222217 -0.0041,-0.07722 -0.0026,-0.216598 0.003,-0.282666 l 0.0024,-0.02832 0.06489,-10e-7 0.06489,-2e-6 -0.0013,0.12893 c -0.0015,0.140802 0.0029,0.231426 0.01526,0.317338 0.0658,0.457395 0.273794,0.873904 0.599195,1.199905 0.08698,0.08714 0.160431,0.145233 0.297043,0.234935 0.160661,0.105493 0.335528,0.203718 0.582031,0.326936 0.535336,0.267595 1.1769,0.535485 2.013672,0.840822 0.08057,0.0294 0.147846,0.05473 0.14951,0.0563 0.0017,0.0016 0.0025,0.03281 0.002,0.06944 l -0.0011,0.0666 z"
     style="fill:#001806;stroke-width:0.00390625" /><path
     inkscape:connector-curvature="0"
     id="path51"
     d=""
     style="fill:#001806;stroke-width:0.00390625" /><path
     inkscape:connector-curvature="0"
     id="path53"
     d=""
     style="fill:#001806;stroke-width:0.03125" /><path
     inkscape:connector-curvature="0"
     id="path55"
     d="m 26.84682,41.236286 c 0.21425,-0.393714 0.654176,-0.776958 1.072428,-0.934249 0.474758,-0.178542 1.138981,-0.100051 2.140625,0.252955 0.462945,0.163155 1.500344,0.56939 1.487316,0.582419 -0.0069,0.0069 -0.214272,-0.05265 -0.460856,-0.132308 -1.254323,-0.405189 -2.221317,-0.647282 -2.58896,-0.648162 -0.617342,-0.0015 -1.211648,0.345199 -1.504,0.877327 -0.08187,0.149013 -0.121532,0.191883 -0.177803,0.192171 -0.07229,3.7e-4 -0.07224,1.6e-5 0.03125,-0.190153 z"
     style="fill:#001806;stroke-width:0.03125" /><path
     inkscape:connector-curvature="0"
     id="path57"
     d="m 40.466123,47.488235 c -3.081003,-0.196449 -6.009645,-0.780771 -9.039062,-1.803473 -0.512499,-0.173014 -0.617188,-0.218431 -0.617188,-0.267748 0,-0.04269 0.01471,-0.05375 0.05229,-0.03932 0.179406,0.06884 1.73435,0.549228 2.322707,0.717575 3.53554,1.011631 6.265449,1.402364 9.453125,1.35303 0.635938,-0.0098 1.339063,-0.03255 1.5625,-0.05046 1.686899,-0.13524 3.103363,-0.350244 4.617188,-0.70084 0.510184,-0.118156 0.710937,-0.153417 0.710937,-0.12487 0,0.02188 -0.05273,0.05358 -0.117187,0.07045 -1.393205,0.364648 -3.093533,0.644202 -4.882813,0.802792 -0.639445,0.05668 -3.390637,0.08571 -4.0625,0.04287 z"
     style="fill:#001806;stroke-width:0.03125" /><path
     inkscape:connector-curvature="0"
     id="path59"
     d="m 40.825498,47.407624 c -2.618657,-0.155638 -4.497594,-0.474817 -7.265625,-1.234223 -1.245145,-0.341605 -2.75,-0.827685 -2.75,-0.888272 0,-0.0252 0.0079,-0.04582 0.01746,-0.04582 0.0096,0 0.310915,0.09771 0.66958,0.217136 1.648022,0.548743 3.73955,1.111341 5.187957,1.395504 2.372324,0.465425 7.21141,0.537902 10.0625,0.150711 0.603874,-0.08201 1.546804,-0.273482 2.386926,-0.484693 0.350362,-0.08808 0.444157,-0.09576 0.376616,-0.03083 -0.03383,0.03252 -1.208564,0.305307 -1.825974,0.424011 -0.983953,0.189176 -2.139043,0.346137 -3.234443,0.439517 -0.556405,0.04743 -3.110142,0.08756 -3.625,0.05695 z"
     style="fill:#001806;stroke-width:0.03125" /><path
     inkscape:connector-curvature="0"
     id="path61"
     d=""
     style="fill:#001806;stroke-width:0.03125" /><path
     inkscape:connector-curvature="0"
     id="path63"
     d="m 35.426279,46.568215 c -0.02578,-0.0065 -0.229687,-0.05687 -0.453125,-0.112039 -1.309177,-0.323249 -2.679091,-0.726642 -3.880859,-1.142779 l -0.294922,-0.102123 v -0.04461 -0.04461 l 0.03904,0.01484 c 0.10913,0.04147 0.772271,0.269181 1.074236,0.368881 0.80605,0.266131 1.542576,0.487415 2.253907,0.677168 0.221694,0.05914 0.952958,0.242854 1.18164,0.296863 l 0.138672,0.03275 v 0.03447 c 0,0.01896 -0.0026,0.03412 -0.0059,0.03369 -0.0032,-4.27e-4 -0.02695,-0.0061 -0.05273,-0.01251 z"
     style="fill:#001806;stroke-width:0.0078125" /><path
     inkscape:connector-curvature="0"
     id="path65"
     d="M 35.197286,46.608595 C 33.819594,46.280486 32.338294,45.853511 30.949717,45.38426 l -0.148438,-0.05016 -0.0023,-0.05989 c -0.0013,-0.03294 -0.0013,-0.05977 0,-0.05962 0.01433,0.0017 0.147412,0.05362 0.13827,0.05396 -0.0068,2.52e-4 -0.03289,-0.0066 -0.05786,-0.01517 -0.05731,-0.01972 -0.05743,-0.01971 -0.06677,0.0049 -0.0057,0.01486 -0.0051,0.0238 0.0021,0.03259 0.05967,0.07275 1.318637,0.48309 2.517746,0.82063 0.637651,0.179494 1.519838,0.407367 2.021434,0.522146 0.07194,0.01646 0.130831,0.03257 0.130859,0.03579 7e-5,0.0082 0.01692,0.01172 -0.287536,-0.06079 z"
     style="fill:#001806;stroke-width:0.0078125" /><path
     inkscape:connector-curvature="0"
     id="path67"
     d="m 35.328623,46.787471 c -1.381781,-0.305059 -2.75743,-0.69221 -4.078125,-1.147713 -0.489861,-0.168951 -0.525294,-0.18227 -0.486328,-0.182805 l 0.0332,-4.56e-4 v -0.05799 -0.05799 l 0.166016,0.05568 c 0.09131,0.03062 0.160742,0.05678 0.154297,0.05813 -0.0064,0.0014 -0.06961,-0.01694 -0.140359,-0.04066 -0.07075,-0.02371 -0.134789,-0.04311 -0.142303,-0.04311 -0.0075,0 -0.0173,0.0068 -0.02175,0.01511 -0.03915,0.07315 0.04201,0.111028 0.730194,0.340777 1.27459,0.425517 2.614731,0.796537 3.791819,1.049769 0.133371,0.02869 0.15736,0.0355 0.148936,0.04227 -0.0018,0.0014 -0.07181,-0.01252 -0.155599,-0.03102 z"
     style="fill:#001806;stroke-width:0.0078125" /></svg>
