<?xml version="1.0" encoding="UTF-8" standalone="no"?>
<svg
   xmlns:dc="http://purl.org/dc/elements/1.1/"
   xmlns:cc="http://creativecommons.org/ns#"
   xmlns:rdf="http://www.w3.org/1999/02/22-rdf-syntax-ns#"
   xmlns:svg="http://www.w3.org/2000/svg"
   xmlns="http://www.w3.org/2000/svg"
   xmlns:sodipodi="http://sodipodi.sourceforge.net/DTD/sodipodi-0.dtd"
   xmlns:inkscape="http://www.inkscape.org/namespaces/inkscape"
   shape-rendering="crispEdges"
   version="1.1"
   x="0px"
   y="0px"
   viewBox="0 0 85.893227 55.688461"
   enable-background="new 0 0 95 95"
   xml:space="preserve"
   id="svg66"
   sodipodi:docname="checkpoint.svg"
   width="22.725916mm"
   height="14.734239mm"
   inkscape:version="1.0beta2 (2b71d25, 2019-12-03)"><metadata
     id="metadata72"><rdf:RDF><cc:Work
         rdf:about=""><dc:format>image/svg+xml</dc:format><dc:type
           rdf:resource="http://purl.org/dc/dcmitype/StillImage" /><dc:title></dc:title></cc:Work></rdf:RDF></metadata><defs
     id="defs70" /><sodipodi:namedview
     scale-x="1"
     pagecolor="#ffffff"
     bordercolor="#666666"
     inkscape:document-rotation="0"
     borderopacity="1"
     objecttolerance="10"
     gridtolerance="10"
     guidetolerance="10"
     inkscape:pageopacity="0"
     inkscape:pageshadow="2"
     inkscape:window-width="1360"
     inkscape:window-height="805"
     id="namedview68"
     showgrid="false"
     units="mm"
     fit-margin-top="0.2"
     fit-margin-left="0.2"
     fit-margin-right="0"
     fit-margin-bottom="0"
     inkscape:zoom="5.4484211"
     inkscape:cx="80.342776"
     inkscape:cy="38.075835"
     inkscape:window-x="0"
     inkscape:window-y="23"
     inkscape:window-maximized="0"
     inkscape:current-layer="svg66" /><g
     id="g434"
     transform="translate(-62.964797,-12.489273)"
     style="fill:#002b11"><path
       inkscape:connector-curvature="0"
       id="path60"
       d="m 76.503019,68.177042 c 0.125,-2.77 1.336,-10.447 10.213,-18.732 0.013,-0.014 0.027,-0.026 0.041,-0.039 6.246,-5.817 16.272001,-11.933 32.356001,-16.859 1.174,-0.36 1.834,-1.604 1.475,-2.778 -0.36,-1.174 -1.602,-1.831 -2.777,-1.475 -14.191,4.349 -23.997001,9.643 -30.769001,14.977 -0.004,-4.59 1.021,-12.076 6.863,-17.7 8.688001,-8.362 25.598001,-10.067 49.000001,-4.965 -2.848,6.772 -12.181,26.304 -27.423,32.824 -7.222,3.09 -14.943,2.839 -22.948001,-0.737 -1.123,-0.504 -2.437,0.002 -2.938,1.122 -0.501,1.121 0.001,2.437 1.122,2.938 4.897,2.188 9.720001,3.285 14.430001,3.285 4.127,0 8.167,-0.842 12.095,-2.524 20.258,-8.674 30.362,-36.575 30.783,-37.758 l 0.832,-2.342 -2.421,-0.566 c -26.625,-6.231 -45.337,-4.373 -55.617001,5.521 -9.027,8.69 -8.49,20.681 -8.023,24.616 -9.346,9.115 -10.646,17.719 -10.748,21.192 z"
       style="fill:#002b11" /><path
       d="m 66.523438,47.775391 c -0.548711,0.736321 -1.243901,1.623713 -1.777344,2.296875 -0.207072,0.261309 -0.419882,0.518845 -0.623047,0.783203 -0.103095,0.134146 -0.184234,0.285874 -0.296875,0.412109 -0.03312,0.03712 -0.0714,0.06927 -0.105469,0.105469 7.114478,7.523864 8.212922,14.251803 8.328125,16.804687 h 4.455078 c -0.09904,-3.372131 -1.353859,-11.58465 -9.980468,-20.402343 z"
       id="path60-2"
       inkscape:connector-curvature="0"
       style="fill:#002b11" /></g><path
     style="fill:#002b11;stroke-width:0.183539"
     d="M 8.9727896,53.979525 C 8.3517018,49.647135 5.7779738,44.501675 2.1091006,40.257469 1.5286572,39.586003 1.053749,38.955112 1.053749,38.855489 c 0,-0.231866 2.3715459,-3.27579 2.5521931,-3.27579 0.1681219,0 1.8381779,1.891346 3.0792349,3.487249 1.4904767,1.916636 2.7516813,3.88822 3.712981,5.804337 l 0.896465,1.786883 0.773966,-1.53934 c 1.554538,-3.091822 3.82595,-6.315415 6.267214,-8.894443 l 1.461601,-1.54408 0.05328,-4.276443 c 0.04753,-3.815144 0.104495,-4.504123 0.528038,-6.387146 2.635037,-11.715052 10.462055,-19.0900795 23.25617,-21.913186 4.219843,-0.931136 6.231103,-1.10818903 12.66422,-1.11484173 6.018841,-0.00622 7.552819,0.091974 13.123068,0.84008103 4.526306,0.607901 15.8575,2.8364692 16.208931,3.1878995 0.266413,0.2664139 -2.214187,6.2635622 -4.366867,10.5574282 -2.143368,4.275285 -3.30206,6.276309 -5.792064,10.002704 -2.61486,3.913248 -4.662846,6.475821 -7.600743,9.510543 -9.353198,9.661456 -19.89496,13.767108 -30.660424,11.941179 -3.641595,-0.617651 -9.111262,-2.43974 -10.004175,-3.332654 -0.882058,-0.882057 -0.830847,-2.263265 0.11337,-3.057772 0.765945,-0.644499 1.524484,-0.604682 3.494295,0.183426 7.670446,3.068891 15.235908,3.077124 22.121824,0.02407 6.869197,-3.045639 13.214505,-8.954732 19.056638,-17.746577 2.317348,-3.487384 3.545961,-5.617016 5.506091,-9.544049 2.262483,-4.5327853 2.59077,-5.3222135 2.290449,-5.5078216 C 79.481341,7.8566912 74.481922,6.8937699 71.257575,6.4038415 62.686848,5.1015488 55.415974,4.8328915 48.997954,5.5813526 34.935393,7.2213101 26.608974,13.97482 24.461572,25.48267 c -0.336318,1.802314 -0.58765,5.325005 -0.379921,5.325005 0.07769,0 0.730338,-0.44048 1.450322,-0.978844 5.697361,-4.260164 13.906183,-8.505935 22.38858,-11.579834 4.323991,-1.566951 6.827048,-2.347353 7.612521,-2.373426 0.698173,-0.02318 0.869919,0.05642 1.422431,0.659219 0.493042,0.537917 0.628384,0.841249 0.628384,1.408348 0,1.224168 -0.605328,1.732803 -2.973205,2.498287 -11.650649,3.766404 -20.548558,8.151382 -27.677877,13.639932 -2.271689,1.748874 -6.859077,6.42593 -8.262184,8.423681 -2.977667,4.239619 -4.751419,8.373277 -5.071702,11.819398 l -0.117204,1.261059 H 11.342368 9.2030203 Z"
     id="path436"
     inkscape:connector-curvature="0" /><path
     style="fill:#002b11;stroke-width:0.183539"
     d="M 9.2342493,55.172532 C 9.1870783,54.945402 9.0565313,54.181419 8.9441454,53.474792 8.3302259,49.614777 5.9623505,44.861796 2.5550236,40.650058 1.8302692,39.754201 1.2375457,38.928273 1.2378602,38.814664 c 9.691e-4,-0.349798 2.2223716,-3.074968 2.4482479,-3.003457 0.3370993,0.106722 3.1041942,3.481798 4.3712624,5.331708 0.6353631,0.927624 1.6208808,2.582082 2.1900395,3.676571 l 1.034835,1.989981 1.026603,-1.939656 c 1.748563,-3.303722 3.681522,-5.987946 6.377404,-8.856052 l 1.230928,-1.309565 0.08923,-4.655466 c 0.08152,-4.25279 0.13093,-4.819231 0.571274,-6.548809 C 23.446169,12.233126 30.850966,5.2494515 42.992505,2.359867 47.702564,1.2389126 48.555912,1.1650802 56.666192,1.1768077 c 6.980402,0.010094 7.651429,0.040343 11.012364,0.4964229 4.03867,0.5480491 11.496089,1.8863063 15.279657,2.7419823 2.069083,0.4679354 2.523666,0.6288629 2.523666,0.8934078 0,1.318888 -4.554503,11.1680363 -7.29338,15.7719933 -8.845095,14.868295 -19.35449,23.678091 -30.791048,25.811464 -2.75665,0.514226 -8.29147,0.470563 -10.920595,-0.08615 -4.140801,-0.876805 -8.506705,-2.461881 -9.265811,-3.364028 -1.036023,-1.231245 -0.245776,-3.090226 1.313614,-3.090143 0.386314,2.2e-5 1.858689,0.404117 3.271942,0.897992 3.161173,1.104702 5.402275,1.601561 8.272243,1.833985 7.473238,0.605213 14.508812,-1.873116 21.185833,-7.462856 2.192867,-1.835781 4.938858,-4.682672 7.034023,-7.292482 1.880798,-2.342787 5.281606,-7.381004 6.919186,-10.250616 1.644804,-2.882263 4.594018,-8.9756832 4.638238,-9.5831324 0.03651,-0.5016048 -0.0091,-0.5304201 -1.338742,-0.8449059 C 76.513991,7.1782514 69.814606,6.0754968 67.036169,5.7615187 60.783392,5.0549223 53.73591,4.9438923 49.141076,5.4795891 43.16223,6.1766436 37.739477,7.9830528 33.817912,10.583991 c -1.578129,1.046677 -4.034165,3.374776 -5.257993,4.9841 -1.197276,1.574405 -2.960414,5.183285 -3.544776,7.255619 -0.905158,3.209985 -1.373726,8.159371 -0.749797,7.919948 0.148043,-0.05681 1.2011,-0.760659 2.340127,-1.564112 6.602409,-4.657235 14.972544,-8.736116 24.508391,-11.943273 4.136352,-1.391165 4.840542,-1.507638 5.490758,-0.908172 0.621367,0.572869 0.970086,1.41356 0.849027,2.046837 -0.136795,0.715593 -0.941454,1.320503 -2.387304,1.794678 -11.55307,3.788896 -20.252785,7.997218 -27.392248,13.250485 -0.989814,0.72831 -3.151019,2.694124 -4.972443,4.522885 -3.531643,3.545871 -5.175527,5.749251 -6.932119,9.291466 -1.361461,2.745423 -1.869652,4.422788 -2.349388,7.75454 l -0.08589,0.596503 h -2.007121 c -1.9336857,0 -2.0102577,-0.0151 -2.0928867,-0.412963 z"
     id="path438"
     inkscape:connector-curvature="0" /><path
     style="fill:#002b11;fill-opacity:1;stroke-width:0.183539"
     d="M 9.5487333,55.438084 C 9.4260073,55.360098 9.1653823,54.473492 8.9695669,53.467845 8.1560266,49.289769 6.4630618,45.81108 2.9822376,41.165136 1.5419643,39.242766 1.2759698,38.786999 1.4282492,38.502464 c 0.326973,-0.610955 2.0188974,-2.555686 2.2234577,-2.555686 0.2517365,0 0.9412883,0.761566 2.5758483,2.844861 1.7912491,2.282999 2.5233564,3.38983 3.8829478,5.8704 l 1.173789,2.141573 1.154681,-2.078823 c 1.908573,-3.436087 3.720026,-5.9445 6.273397,-8.687096 l 1.196929,-1.285632 0.130685,-4.49586 c 0.143119,-4.923615 0.323547,-6.183448 1.311589,-9.158099 1.456476,-4.384936 3.440368,-7.634947 6.575287,-10.771629 3.892414,-3.8946021 8.272048,-6.1930722 15.057243,-7.902171 4.37401,-1.1017545 5.755603,-1.2062109 14.778245,-1.117321 7.488344,0.073774 8.182473,0.108814 11.075339,0.5590849 5.951056,0.9262747 13.647539,2.3884659 15.697955,2.982325 0.929047,0.2690783 0.974561,0.3102616 0.860563,0.7786683 C 84.879738,7.7491887 80.104421,17.855354 77.920966,21.447165 70.326017,33.940948 61.900178,41.899308 52.583728,45.37865 c -3.55398,1.32728 -5.123429,1.614787 -9.363696,1.715345 -4.231173,0.100341 -5.681437,-0.0412 -8.877266,-0.866405 -2.419528,-0.624756 -5.773303,-1.858871 -6.610485,-2.432518 -1.340692,-0.918657 -1.294915,-2.528707 0.09059,-3.186172 0.641368,-0.304349 0.697843,-0.298285 2.590005,0.278104 6.093234,1.856117 7.434059,2.140326 10.744234,2.277401 5.879485,0.243472 11.520736,-1.465724 16.92352,-5.12752 C 65.102992,33.277403 71.872215,24.869956 77.201047,14.289127 79.524996,9.6747396 80.115172,8.2979965 79.872676,8.0568468 79.416131,7.6028377 69.838799,5.9691119 64.741926,5.4758046 61.443855,5.1565965 54.042953,5.0482058 51.160009,5.2768891 44.210497,5.8281444 38.393896,7.5774971 34.022931,10.430894 c -1.81714,1.18624 -4.597475,3.870811 -5.769171,5.570457 -2.515705,3.649251 -3.966255,7.9875 -4.198917,12.557966 -0.06295,1.236597 -0.04629,2.248358 0.03703,2.248358 0.08332,0 1.561889,-0.940803 3.285719,-2.090672 3.712646,-2.476501 5.787649,-3.684457 9.638838,-5.611215 4.734801,-2.368831 10.762999,-4.807022 15.611894,-6.314452 2.228544,-0.692813 2.957701,-0.813203 3.61579,-0.597001 0.525252,0.172562 1.157826,1.205785 1.150398,1.879014 -0.01134,1.027901 -0.621384,1.453635 -3.491349,2.43654 -10.154751,3.477801 -17.043457,6.713962 -23.666648,11.118073 -5.407251,3.595566 -10.819507,9.091828 -13.452063,13.660857 -1.813821,3.148042 -2.835161,5.915374 -3.26294,8.840974 l -0.212852,1.455702 -1.768395,-0.0028 c -0.972618,-0.0015 -1.8688067,-0.06662 -1.9915327,-0.144601 z"
     id="path440"
     inkscape:connector-curvature="0" /><path
     style="fill:#002b11;fill-opacity:1;stroke-width:0.183539"
     d="M 10.231662,55.421795 9.4984463,55.310186 8.834975,52.740634 C 8.4700656,51.327381 8.0364439,49.810854 7.8713713,49.370574 7.2061285,47.596245 5.4285957,44.512887 3.5245474,41.830453 2.417975,40.271508 1.5125975,38.866237 1.5125975,38.707628 c 0,-0.382755 1.7844355,-2.57731 2.0956603,-2.57731 0.7582058,0 4.5612439,5.098901 6.6032692,8.853295 0.479677,0.881918 0.937214,1.643705 1.016748,1.692859 0.07953,0.04916 0.75075,-0.977823 1.491591,-2.282171 1.730585,-3.046927 3.230911,-5.147295 5.504995,-7.706673 l 1.825218,-2.054201 0.0038,-2.1423 c 0.006,-3.423689 0.326237,-7.458625 0.725188,-9.138423 0.784805,-3.304449 2.513392,-7.138044 4.343383,-9.632592 4.153482,-5.661809 9.334029,-8.9707735 17.343667,-11.0778997 4.421624,-1.1632138 5.387764,-1.2465347 14.200094,-1.2246283 4.340707,0.01079 8.718122,0.1065775 9.727589,0.21286 3.505575,0.3690872 15.270449,2.4919945 17.953895,3.2396818 1.009846,0.2813732 1.061876,0.3237338 0.951393,0.7745745 -0.40694,1.6605721 -3.983446,9.4768427 -6.175182,13.4955407 -1.614389,2.960094 -4.246168,6.9988 -6.415339,9.844926 -6.574166,8.625827 -13.402452,13.991354 -21.27323,16.716065 -2.40202,0.831532 -3.862794,1.084308 -7.249806,1.254525 -5.856908,0.29434 -9.761197,-0.371036 -15.001418,-2.55657 -1.592548,-0.664202 -2.343057,-1.381788 -2.343057,-2.24027 0,-0.735545 0.878866,-1.623654 1.606756,-1.623654 0.293567,0 2.096311,0.455299 4.006101,1.011778 4.878241,1.42143 6.033504,1.616439 9.620914,1.624019 4.568339,0.0097 7.66806,-0.701269 11.888779,-2.726691 C 61.498946,36.828331 68.764299,29.289488 74.836393,18.785843 76.540968,15.83723 79.737933,9.3140661 79.835704,8.5851261 79.939408,7.8119535 80.178457,7.9181474 76.774906,7.2254089 74.251565,6.7118234 69.524528,5.9687468 66.210241,5.5646743 62.401143,5.1002754 52.909746,4.9927631 49.599924,5.3765237 44.405865,5.9787543 40.234853,7.1229296 36.546043,8.9574119 30.077149,12.17446 25.625896,18.182176 24.3684,25.393194 c -0.388386,2.227168 -0.570883,5.414481 -0.310017,5.414481 0.114421,0 1.716496,-0.977234 3.560166,-2.171631 4.848254,-3.140881 7.523559,-4.635222 11.978477,-6.690799 4.9784,-2.297123 12.383728,-5.062786 15.137303,-5.653323 1.196732,-0.256653 1.885477,-0.0033 2.286064,0.840853 0.39954,0.841967 0.360264,1.431661 -0.124777,1.873448 -0.612506,0.557884 -0.993949,0.724881 -4.524623,1.980893 -8.644559,3.075239 -14.575863,5.823617 -20.265027,9.39017 -10.304248,6.459761 -17.10917,15.00545 -18.561815,23.310107 -0.156122,0.892536 -0.284122,1.684738 -0.284444,1.760448 -6.79e-4,0.15726 -1.933008,0.140641 -3.028045,-0.02605 z"
     id="path1265"
     inkscape:connector-curvature="0" /></svg>
